<svg xmlns="http://www.w3.org/2000/svg" viewBox="0 0 500 500"><g id="freepik--background-complete--inject-39"><rect x="389.32" y="338.78" width="48.43" height="12.81" style="fill:#ebebeb"></rect><path d="M417.27,365.09a1.35,1.35,0,0,1,0-.24c0-.17,0-.38,0-.65,0-.61,0-1.45,0-2.52,0-2.22-.05-5.4-.08-9.41l.15.15-48.43.1c.11-.11-.25.25.24-.25h0v12.81l-.24-.24,34.51.1,10.19.07,2.75,0H417l.26,0H417l-.69,0-2.7,0-10.13.07-34.68.11h-.24V352.28h0c.49-.49.14-.13.25-.24l48.43.09h.15v.15c0,4.05-.06,7.26-.08,9.49,0,1.07,0,1.9,0,2.49,0,.26,0,.47,0,.63A1.66,1.66,0,0,1,417.27,365.09Z" style="fill:#e0e0e0"></path><rect x="206.86" y="213.65" width="48.43" height="12.81" style="fill:#ebebeb"></rect><rect x="205.96" y="347.73" width="48.43" height="12.81" style="fill:#f5f5f5"></rect><rect x="422.29" y="159.65" width="48.43" height="12.81" style="fill:#f5f5f5"></rect><rect x="46.65" y="154.43" width="48.43" height="12.81" style="fill:#f5f5f5"></rect><path d="M234.81,240a2.07,2.07,0,0,1,0-.23c0-.17,0-.39,0-.66,0-.6,0-1.44,0-2.52,0-2.21,0-5.39-.08-9.4l.15.15-48.43.1c.11-.11-.25.24.24-.25h0V240l-.24-.24,34.51.11,10.19.07,2.75,0,.73,0h.25s-.07,0-.22,0l-.69,0-2.71,0-10.13.07-34.68.11h-.24V240q0-3.09,0-6.3v-6.49h0c.49-.49.14-.13.25-.24l48.43.09H235v.15c0,4.05-.06,7.26-.08,9.49,0,1.07,0,1.9,0,2.49,0,.26,0,.47,0,.63S234.82,240,234.81,240Z" style="fill:#e0e0e0"></path><rect x="344.61" y="197.16" width="48.43" height="12.81" style="fill:#ebebeb"></rect><path d="M372.56,223.46a2.07,2.07,0,0,1,0-.23c0-.17,0-.39,0-.66q0-.9,0-2.52c0-2.21-.05-5.39-.09-9.4l.15.15-48.43.1c.11-.11-.25.24.25-.25h0v6.49q0,3.21,0,6.3l-.24-.24,34.52.11,10.18.07,2.76,0,.72,0h.25s-.07,0-.22,0h-.69l-2.7,0-10.14.07-34.68.1h-.24v-.25q0-3.09,0-6.3v-6.49h0l.25-.25,48.43.1h.15v.15c0,4-.06,7.26-.08,9.49,0,1.06,0,1.89,0,2.49,0,.26,0,.47,0,.63S372.57,223.47,372.56,223.46Z" style="fill:#e0e0e0"></path><path d="M458.72,73.78a1,1,0,0,1,0-.23v-.66c0-.6,0-1.44,0-2.52,0-2.21,0-5.39-.08-9.4l.15.15-48.43.1c.1-.11-.25.24.24-.25h0v6.49q0,3.21,0,6.3l-.24-.24,34.52.11,10.19.07,2.75,0,.72,0h.26a.94.94,0,0,1-.23,0h-.69l-2.7,0L445,73.92,410.28,74H410V61h0c.49-.49.13-.14.25-.25l48.43.1h.15V61c0,4-.07,7.26-.09,9.49q0,1.59,0,2.49l0,.63A1.23,1.23,0,0,1,458.72,73.78Z" style="fill:#e0e0e0"></path><path d="M465.28,61s0-.09,0-.24,0-.41,0-.68c0-.63,0-1.49-.05-2.57,0-2.25-.05-5.42-.09-9.32l.17.18-29.1.06c-.22.23.3-.3.25-.24h0v6.58c0,2.14,0,4.22,0,6.21l-.24-.23,20.82.11,6.06.06,1.64,0,.58,0a3.28,3.28,0,0,1-.53,0l-1.58,0-6,.06-21,.12H436V61c0-2,0-4.07,0-6.21V48.18h0c-.06.05.46-.47.24-.25l29.1.07h.18v.18c0,3.94-.07,7.15-.1,9.43,0,1.06,0,1.91,0,2.53A4.8,4.8,0,0,1,465.28,61Z" style="fill:#e0e0e0"></path><path d="M105.73,52.62a1.17,1.17,0,0,1,0-.23v-.66c0-.6,0-1.44,0-2.52,0-2.21,0-5.39-.08-9.4l.15.15-48.43.09.24-.24h0V52.62l-.24-.24,34.51.11,10.19.07,2.75,0h.72l.26,0h-.23l-.69,0-2.7,0L92,52.75l-34.68.11h-.25v-13h0l.25-.25,48.43.1h.15v.15c0,4-.07,7.25-.08,9.49,0,1.06,0,1.89,0,2.48l0,.64A1.39,1.39,0,0,1,105.73,52.62Z" style="fill:#e0e0e0"></path><path d="M112.3,39.81a.77.77,0,0,1,0-.25l0-.68c0-.63,0-1.48-.05-2.57,0-2.24,0-5.42-.09-9.32l.18.18-29.1.07.24-.25h0v6.59c0,2.15,0,4.22,0,6.22l-.24-.24,20.82.11,6.07.07,1.63,0,.59,0-.53,0-1.59,0-6,.07-21,.11H83v-.23c0-2,0-4.07,0-6.22V27h0l.25-.24,29.1.07h.17V27c0,4-.07,7.16-.09,9.43,0,1.07,0,1.91,0,2.53S112.31,39.82,112.3,39.81Z" style="fill:#e0e0e0"></path><path d="M53.3,326.36a31.74,31.74,0,0,0-13.59-4.68c-2.22-.23-4.65-.16-6.43,1.18-.38.29-.75.71-.66,1.17a1.4,1.4,0,0,0,.63.81,19.43,19.43,0,0,0,20,1.52" style="fill:#e0e0e0"></path><path d="M53,326a66.56,66.56,0,0,1-8.78-7.72,22.27,22.27,0,0,1-5.5-10.18,4.09,4.09,0,0,1,.43-3.4c7,5.46,12.5,12.53,13.85,21.3" style="fill:#e0e0e0"></path><path d="M53.23,326.3a31.63,31.63,0,0,1,.16-11.52,15.58,15.58,0,0,1,6.14-9.51c1.21,2.83.69,6.08-.17,9a43.84,43.84,0,0,1-6.08,12.81" style="fill:#e0e0e0"></path><path d="M60.08,338.59a20,20,0,0,0-10.89,5.52A20.64,20.64,0,0,0,43,354.81c4.09-.25,7.55-3.13,10.06-6.36s4.26-6.77,7-9.79" style="fill:#e0e0e0"></path><path d="M61.57,340.56a26.88,26.88,0,0,1,3.11-25.43c2.37,8.44,1.5,18-3.11,25.43" style="fill:#e0e0e0"></path><path d="M70.64,351.35a19.41,19.41,0,0,0-18.59,10.7c-.23.46-.43,1-.12,1.45a1.36,1.36,0,0,0,1.23.37c3.66-.24,6.91-2.44,9.59-4.95s5-5.41,8-7.58" style="fill:#e0e0e0"></path><path d="M70.35,350.76A34.63,34.63,0,0,1,70,331.43c.68-2.49,1.83-5.11,4.13-6.28a.79.79,0,0,1,.63-.11.83.83,0,0,1,.4.46,11.68,11.68,0,0,1,1,5.55,34.44,34.44,0,0,1-.87,5.61c-.72,3.44-1.11,7.12-3,10.08a21.64,21.64,0,0,0-1.2,2.22c-.35.75-.36,1-.68,1.61" style="fill:#e0e0e0"></path><path d="M94.33,354.33a24.94,24.94,0,0,1,4.37-20.49c.32-.41.73-.85,1.25-.8.78.07,1,1.12,1,1.9a37,37,0,0,1-6.57,19.39" style="fill:#e0e0e0"></path><path d="M96.5,355.81a29.81,29.81,0,0,0,24.46-5,19.82,19.82,0,0,0-13.24-1.63c-4.43,1-8.47,3-11.22,6.6" style="fill:#e0e0e0"></path><path d="M98.32,351.31c4.6-7.5,13.42-12.39,22.21-12.84-1,3.58-4,6.35-7.27,8a40.26,40.26,0,0,1-10.66,3.12c-1.41.27-3.36.58-4.28,1.69" style="fill:#e0e0e0"></path><path d="M94.79,329.47a64.11,64.11,0,0,0,2.84-13A21.69,21.69,0,0,0,95,303.6c-4.3,8.32-4.73,18-.38,26.32" style="fill:#e0e0e0"></path><path d="M109.26,322.16c5-9.13,15.27-16.43,25.65-17.45-4,10-14.92,17.66-25.65,17.45" style="fill:#e0e0e0"></path><path d="M106.1,324c7.49,1.14,13.87,5.93,20.88,8.83a9.34,9.34,0,0,0,4.72.9,3.7,3.7,0,0,0,2.31-6.54,10.19,10.19,0,0,0-3.43-2.08c-7.63-3.17-15.8-3.25-23.84-1.32" style="fill:#e0e0e0"></path><path d="M101.76,329.2c1.7.49,2.28,1.37,3.62,2.51a39.16,39.16,0,0,0,15.83,8.14c.61.15,1.4.21,1.7-.34s-.07-1.05-.41-1.48a21.69,21.69,0,0,0-9.56-6.49c-3.65-1.36-6.82-3-11.18-2.65" style="fill:#e0e0e0"></path><path d="M96.87,297.46a30,30,0,0,0,23,7.82,1.61,1.61,0,0,0,1-.38c.57-.63-.12-1.6-.79-2.12-6.76-5.27-14.94-7.45-23.23-5.32" style="fill:#e0e0e0"></path><path d="M102.67,295.34a32,32,0,0,1,28.67-4.73,22.78,22.78,0,0,1-13.67,6,43.38,43.38,0,0,1-15-1.27" style="fill:#e0e0e0"></path><path d="M100.36,280.75c-.66-6.74-.23-12.06-.7-18.84,0-.54-.15-1.19-.66-1.38-.7-.27-1.29.59-1.52,1.31a21.59,21.59,0,0,0,2.87,18.76" style="fill:#e0e0e0"></path><path d="M99.88,281.5A39.65,39.65,0,0,0,111,270.64c2.21-3,4.07-6.63,3.57-10.34a10.72,10.72,0,0,0-8.06,4,22.52,22.52,0,0,0-4.1,8.27c-.9,3-1.52,6-2.57,8.93" style="fill:#e0e0e0"></path><path d="M110.85,278.45a90.07,90.07,0,0,0,27.48-16.21c-3.28-1.32-7-.53-10.32.8a32.48,32.48,0,0,0-17.3,15.33" style="fill:#e0e0e0"></path><path d="M103,285.18a55.72,55.72,0,0,0,15.26.08c5-.83,9.63-2.79,14.25-4.74a1.68,1.68,0,0,0,1-.73,1.11,1.11,0,0,0-.35-1.22,2.94,2.94,0,0,0-1.21-.57c-5-1.4-10.45-.75-15.4.92A71.78,71.78,0,0,0,103,285.18" style="fill:#e0e0e0"></path><path d="M74,297.69c-3.46-7-3.24-15.14-.25-22.34,2.11,3.21,2.37,7.29,2,11.11S74.18,294.2,74.1,298" style="fill:#e0e0e0"></path><path d="M60.16,290.72A31.16,31.16,0,0,0,37,300.58a21.6,21.6,0,0,0,12.68-2.35A63.92,63.92,0,0,0,60.55,291" style="fill:#e0e0e0"></path><path d="M50.87,287.61c-4.23-.34-8.3-.87-12.36.38a14.81,14.81,0,0,0-9.43,8,22.41,22.41,0,0,0,11.59-2.19,66.76,66.76,0,0,0,10.2-6.18" style="fill:#e0e0e0"></path><path d="M64.63,287.75c-3.8-2.49-7.71-5-12.14-6.06s-9.56-.27-12.65,3.07c3.59,2.1,7.94,2.35,12.1,2.35s9.25-.05,13.17,1.33" style="fill:#e0e0e0"></path><path d="M64.65,288c-6.5-6.38-9-17.85-6.35-26.58A40.48,40.48,0,0,1,64.65,288" style="fill:#e0e0e0"></path><path d="M82.53,269.86c1.23-2.85,2.09-5.84,3.19-8.74a25.13,25.13,0,0,1,4.55-8.07,12,12,0,0,1,8-4.17,32.41,32.41,0,0,1-15.63,21" style="fill:#e0e0e0"></path><path d="M79.3,273.63c-2-2.79-4.38-6.59-7.13-8.67s-6.33-3.35-9.69-2.55A22.58,22.58,0,0,0,79.3,273.63" style="fill:#e0e0e0"></path><path d="M80,270.09a48.24,48.24,0,0,1-3.21-10.39,16.23,16.23,0,0,1,1.62-10.56c3.57,6.75,4.72,14,1.77,21" style="fill:#e0e0e0"></path><path d="M82.57,249.14c2-6.69,8.14-11.61,14.75-13.87a5.53,5.53,0,0,1,2.59-.39,2.26,2.26,0,0,1,1.91,1.59c.24,1.14-.7,2.16-1.58,2.92a50.24,50.24,0,0,1-17.67,9.75" style="fill:#e0e0e0"></path><path d="M82.64,243.67c.26-4.31.53-8.69,1.93-12.77s4.1-7.92,8-9.71c.67,4.36-1.26,8.69-3.57,12.44s-5.11,7.28-6.51,11.46" style="fill:#e0e0e0"></path><path d="M82.53,246.64c-1.67-4.87-1.84-11.07-4.76-15.31-2-3-5.31-5-7.06-8.14a12.34,12.34,0,0,0,.41,9.24,26.81,26.81,0,0,0,5.4,7.73c2.16,2.3,4,4,6,6.48" style="fill:#e0e0e0"></path><path d="M82.57,390.19c-.13,0-.25-32.52-.25-72.62s.08-72.63.21-72.63.25,32.51.26,72.63S82.7,390.19,82.57,390.19Z" style="fill:#e0e0e0"></path><path d="M111,292.78a5.48,5.48,0,0,1-1.22.46l-3.36,1.14c-2.84,1-6.74,2.37-11,4.1s-8.14,3.25-10.39,5.2A7.71,7.71,0,0,0,83,306.44c-.33.77-.38,1.23-.43,1.23a1.1,1.1,0,0,1,0-.34,5,5,0,0,1,.24-.95,7.36,7.36,0,0,1,2-2.95,18.56,18.56,0,0,1,4.51-2.8c1.8-.84,3.8-1.71,5.92-2.59,4.25-1.73,8.17-3.09,11-4,1.44-.44,2.61-.77,3.42-1A7.81,7.81,0,0,1,111,292.78Z" style="fill:#e0e0e0"></path><path d="M120.3,269.91a2.65,2.65,0,0,1-.34.36l-1,1L115,274.79l-13,11.54c-5.06,4.51-9.43,8.81-12.47,12.06-1.51,1.61-2.71,2.95-3.52,3.89l-1,1.08c-.21.24-.33.36-.35.35a2.62,2.62,0,0,1,.28-.41c.2-.26.48-.65.88-1.14.77-1,1.93-2.35,3.42-4A165.87,165.87,0,0,1,101.74,286c5.08-4.49,9.7-8.53,13.06-11.44l4-3.43c.45-.36.81-.67,1.1-.91S120.29,269.89,120.3,269.91Z" style="fill:#e0e0e0"></path><path d="M96.59,290.92c-.14-.06.92-2.5,2-5.59s1.56-5.69,1.69-5.67A18.64,18.64,0,0,1,99,285.48a38.78,38.78,0,0,1-1.57,3.91A6.64,6.64,0,0,1,96.59,290.92Z" style="fill:#e0e0e0"></path><path d="M82.6,310.6a5.37,5.37,0,0,1-.78-.91l-2-2.56c-1.68-2.17-4-5.16-6.6-8.44s-5-6.22-6.72-8.34l-2-2.53a6.4,6.4,0,0,1-.7-1,6.19,6.19,0,0,1,.84.85c.52.56,1.26,1.39,2.16,2.43,1.8,2.08,4.23,5,6.84,8.27s4.88,6.31,6.49,8.53c.81,1.11,1.45,2,1.88,2.65A6.21,6.21,0,0,1,82.6,310.6Z" style="fill:#e0e0e0"></path><path d="M76.37,302.6a11.42,11.42,0,0,1-2.61-4.89,13.81,13.81,0,0,1-.6-4.93l.21,0c-.09.38-.16.58-.2.57s0-.21,0-.6l.21,0a22.52,22.52,0,0,0,.84,4.79A35.73,35.73,0,0,0,76.37,302.6Z" style="fill:#e0e0e0"></path><path d="M68.32,292.48a8,8,0,0,0-1.82-1.06,12.25,12.25,0,0,0-5.06-.4,32.4,32.4,0,0,0-5.1.82,14.13,14.13,0,0,1-2.09.5,7.68,7.68,0,0,1,2-.82,23.53,23.53,0,0,1,5.15-1,11,11,0,0,1,5.22.56A3.26,3.26,0,0,1,68.32,292.48Z" style="fill:#e0e0e0"></path><path d="M66.41,290c0,.07-1.06-.43-2.79-1a28.16,28.16,0,0,0-14.07-1.07c-1.8.32-2.89.66-2.91.58a2.75,2.75,0,0,1,.74-.32,18,18,0,0,1,2.11-.59,24.89,24.89,0,0,1,14.25,1.09,17.94,17.94,0,0,1,2,.9C66.19,289.85,66.43,290,66.41,290Z" style="fill:#e0e0e0"></path><path d="M82.53,279.66a60.45,60.45,0,0,1-2-7.08,56.35,56.35,0,0,1-1.58-7.18,59.19,59.19,0,0,1,2,7.07A56.68,56.68,0,0,1,82.53,279.66Z" style="fill:#e0e0e0"></path><path d="M82.66,279.66a33.45,33.45,0,0,0-2.25-4.24A18.24,18.24,0,0,0,77.08,272a3.33,3.33,0,0,1,1.29.67,10.29,10.29,0,0,1,2.42,2.49A9.31,9.31,0,0,1,82.66,279.66Z" style="fill:#e0e0e0"></path><path d="M82.57,372.86s-.15-.79-.52-2.17a30.49,30.49,0,0,0-2.17-5.63,77.86,77.86,0,0,0-11.53-16.24c-2.57-2.94-5.07-5.71-7.19-8.37A58.19,58.19,0,0,1,56,333a35.84,35.84,0,0,1-2.6-5.5c-.24-.68-.41-1.21-.51-1.57a2.37,2.37,0,0,1-.13-.57s.28.75.81,2.07a40.39,40.39,0,0,0,2.72,5.41,63.24,63.24,0,0,0,5.19,7.31c2.13,2.63,4.63,5.39,7.21,8.33,5.2,5.85,9.28,11.74,11.47,16.41a28,28,0,0,1,2,5.73c.15.7.25,1.25.29,1.63A3.11,3.11,0,0,1,82.57,372.86Z" style="fill:#e0e0e0"></path><path d="M108.24,343.85a9.38,9.38,0,0,1-1.34.76,28.34,28.34,0,0,0-3.49,2.31,40.3,40.3,0,0,0-4.59,4.18c-1.6,1.7-3.26,3.67-4.95,5.79-3.39,4.24-6.55,8-8.44,11-1,1.49-1.66,2.74-2.12,3.62a12.94,12.94,0,0,1-.74,1.36s0-.14.12-.39.24-.6.45-1.05a34.08,34.08,0,0,1,2-3.72,119,119,0,0,1,8.35-11.11c1.69-2.12,3.37-4.1,5-5.79a36.15,36.15,0,0,1,4.7-4.15,24.05,24.05,0,0,1,3.6-2.2c.45-.23.81-.36,1-.47A1.73,1.73,0,0,1,108.24,343.85Z" style="fill:#e0e0e0"></path><path d="M108.75,353.26a20.21,20.21,0,0,1-2.85.42A36.7,36.7,0,0,0,99.16,355a20.32,20.32,0,0,0-6,3.17c-1.4,1.08-2.05,2-2.12,1.92a2.42,2.42,0,0,1,.42-.66,10.77,10.77,0,0,1,1.49-1.51,18.18,18.18,0,0,1,6.1-3.36,30.85,30.85,0,0,1,6.86-1.22A16.7,16.7,0,0,1,108.75,353.26Z" style="fill:#e0e0e0"></path><path d="M91.83,359.05c-.15-.08,1.14-2,2.13-4.67s1.15-5,1.32-5a4.4,4.4,0,0,1,0,1.52,15.94,15.94,0,0,1-.83,3.6,17.36,17.36,0,0,1-1.65,3.3C92.25,358.63,91.89,359.09,91.83,359.05Z" style="fill:#e0e0e0"></path><path d="M116.56,318.59a1.67,1.67,0,0,1-.45.24l-1.34.61c-.59.25-1.3.57-2.1,1s-1.74.85-2.72,1.43l-1.55.88c-.54.31-1.07.68-1.63,1-1.15.69-2.29,1.54-3.52,2.42a64.77,64.77,0,0,0-7.33,6.45,65.65,65.65,0,0,0-6.2,7.55c-.83,1.25-1.64,2.42-2.3,3.59-.33.58-.68,1.12-1,1.67L85.62,347c-.55,1-1,1.95-1.34,2.77s-.68,1.54-.92,2.13-.41,1-.56,1.36a3.18,3.18,0,0,1-.22.46,1.81,1.81,0,0,1,.13-.5c.13-.36.29-.82.48-1.39s.48-1.34.85-2.17.74-1.79,1.28-2.8l.81-1.61c.28-.56.63-1.11,1-1.7.64-1.18,1.45-2.37,2.28-3.64A58,58,0,0,1,103,325.85c1.24-.87,2.41-1.72,3.57-2.4.57-.35,1.11-.72,1.66-1l1.58-.86c1-.57,1.94-1,2.76-1.37s1.54-.7,2.14-.93l1.37-.52A2.74,2.74,0,0,1,116.56,318.59Z" style="fill:#e0e0e0"></path><path d="M96.24,332.21a3.23,3.23,0,0,1,1.12-1.67,7.1,7.1,0,0,1,4.5-1.72,12.48,12.48,0,0,1,4.74.92,7.12,7.12,0,0,1,1.79.87,10.47,10.47,0,0,1-1.9-.55,14.18,14.18,0,0,0-4.62-.77,7.24,7.24,0,0,0-4.3,1.51A12,12,0,0,0,96.24,332.21Z" style="fill:#e0e0e0"></path><path d="M93.2,335.34a12,12,0,0,0,1-8.5,2.76,2.76,0,0,1,.53,1.21,8.68,8.68,0,0,1,.23,3.19,8.56,8.56,0,0,1-1,3.05C93.6,335,93.25,335.38,93.2,335.34Z" style="fill:#e0e0e0"></path><path d="M60.11,377.52c.7,12.42,4.44,25.06,10.2,37.84h25c5.49-12.65,9-25.27,9.6-37.84Z" style="fill:#e0e0e0"></path><path d="M100.9,397.62c0,.13-8.25.24-18.42.24s-18.42-.11-18.42-.24,8.25-.23,18.42-.23S100.9,397.5,100.9,397.62Z" style="fill:#fafafa"></path><path d="M100.34,402.13c0,.13-7.73.23-17.27.23s-17.26-.1-17.26-.23,7.73-.24,17.26-.24S100.34,402,100.34,402.13Z" style="fill:#fafafa"></path><path d="M70.72,385.68a72.37,72.37,0,0,1,0,11.53,69.36,69.36,0,0,1,0-11.53Z" style="fill:#fafafa"></path><path d="M84.14,385.68a77.6,77.6,0,0,1,0,11.94,74.37,74.37,0,0,1,0-11.94Z" style="fill:#fafafa"></path><path d="M96.74,385.57a80.87,80.87,0,0,1,0,12.19,77.51,77.51,0,0,1,0-12.19Z" style="fill:#fafafa"></path><path d="M104.16,385.68c0,.13-9.67.23-21.6.23s-21.6-.1-21.6-.23,9.67-.24,21.6-.24S104.16,385.55,104.16,385.68Z" style="fill:#fafafa"></path></g><g id="freepik--Floor--inject-39"><path d="M451.41,415.07c0,.14-90.63.26-202.4.26s-202.41-.12-202.41-.26,90.61-.26,202.41-.26S451.41,414.92,451.41,415.07Z" style="fill:#263238"></path></g><g id="freepik--Table--inject-39"><rect x="269.28" y="316.46" width="14.53" height="98.61" style="fill:#455a64"></rect><path d="M283.81,415.07s0-.18,0-.51,0-.84,0-1.48c0-1.31,0-3.21,0-5.65,0-4.92-.05-12-.08-20.87,0-17.68-.07-42.3-.11-70.1l.26.26H269.28l.26-.26c-.06,42.62-.11,79.72-.13,98.61l-.13-.13L280,415l2.8,0,1,0-.92,0-2.78,0-10.83.07h-.13v-.12c0-18.89-.07-56-.13-98.61v-.26h15.05v.26C284,344.34,284,369,284,386.74c0,8.82-.05,15.91-.07,20.82,0,2.41,0,4.29,0,5.59,0,.62,0,1.1,0,1.44S283.81,415.07,283.81,415.07Z" style="fill:#263238"></path><rect x="381.82" y="315.6" width="14.53" height="99.46" style="fill:#455a64"></rect><path d="M396.35,415.07s0-.18,0-.52,0-.85,0-1.49c0-1.32,0-3.23,0-5.7,0-5,0-12.13-.08-21.05,0-17.84-.07-42.67-.11-70.71l.26.26H381.82l.26-.26c-.06,43-.11,80.47-.13,99.47l-.13-.13,10.76.07,2.8,0,1,0-.92,0-2.77,0-10.84.07h-.12v-.12c0-19-.08-56.44-.14-99.47v-.26h15.05v.25c-.05,28.12-.09,53-.12,70.89,0,8.9-.05,16.05-.07,21,0,2.44,0,4.34,0,5.64,0,.63,0,1.11,0,1.46S396.35,415.07,396.35,415.07Z" style="fill:#263238"></path><polygon points="403.17 317.77 263.85 318.03 263.85 266.44 403.17 266.44 403.17 317.77" style="fill:#455a64"></polygon><path d="M403.17,317.77s0-.32,0-.91,0-1.49,0-2.64c0-2.33,0-5.75,0-10.16,0-8.83-.06-21.64-.1-37.61l.18.17-139.32.09.26-.26v.12c0,17.95,0,35.33,0,51.46l-.25-.25,99.78-.07h29l7.79,0h2l.7,0-.66,0h-2l-7.74.05-29,.13-99.95.3h-.25V318c0-16.13,0-33.51,0-51.46v-.39h.26l139.32.09h.18v.18c0,16-.08,28.86-.1,37.71,0,4.4,0,7.8,0,10.12,0,1.14,0,2,0,2.61S403.17,317.77,403.17,317.77Z" style="fill:#263238"></path><path d="M391.72,307.58s0-.21,0-.6,0-1,0-1.71c0-1.52,0-3.73-.05-6.6,0-5.75-.05-14.09-.1-24.57l.19.16-117.33.08h0l.28-.24c0,11.63,0,22.91,0,33.48l-.27-.24,83.91.11,24.53.07,6.58,0h1.71l.6,0h-.56l-1.68,0-6.53,0-24.46.06-84.1.11h-.28V273.86h.28l117.33.08h.18v.16c0,10.52-.08,18.9-.1,24.67,0,2.85,0,5.05,0,6.56,0,.73,0,1.29,0,1.69S391.72,307.58,391.72,307.58Z" style="fill:#263238"></path><path d="M278.58,303.19a8.73,8.73,0,0,1-1.85,2.23,8.85,8.85,0,0,1-2.22,1.9,8.48,8.48,0,0,1,1.85-2.23A8.6,8.6,0,0,1,278.58,303.19Z" style="fill:#263238"></path><path d="M278.58,278.49a9.49,9.49,0,0,1-2.3-2,9.76,9.76,0,0,1-1.92-2.36,18.78,18.78,0,0,1,4.22,4.38Z" style="fill:#263238"></path><path d="M391.93,274.21a9.43,9.43,0,0,1-2.56,2.32,15.63,15.63,0,0,1-2.92,2,9.47,9.47,0,0,1,2.55-2.32A15.17,15.17,0,0,1,391.93,274.21Z" style="fill:#263238"></path><path d="M391.72,307.58a11.84,11.84,0,0,1-2.83-2,10.76,10.76,0,0,1-2.44-2.37,12.07,12.07,0,0,1,2.83,2A10.76,10.76,0,0,1,391.72,307.58Z" style="fill:#263238"></path><path d="M386.45,303.19a3.72,3.72,0,0,1,0-.44c0-.3,0-.71,0-1.25,0-1.12,0-2.74,0-4.85,0-4.22-.05-10.38-.1-18.16l.18.15L279,278.73h0l.29-.24c0,8.49,0,16.77,0,24.7L279,303l76.65.11,22.56.07,6.08,0h1.58l.55,0h-.52l-1.55,0-6,0-22.49.07-76.84.1h-.27v-.23c0-7.93,0-16.21,0-24.7v-.24H279l107.41.1h.17v.14c0,7.82-.08,14-.1,18.25,0,2.09,0,3.7,0,4.81,0,.53,0,.94,0,1.23S386.45,303.19,386.45,303.19Z" style="fill:#263238"></path><path d="M342.64,288.56a10.92,10.92,0,0,0-2.62-1.13,9,9,0,0,0-2.59-.38h-7.17a8.53,8.53,0,0,0-5.71,2.1,4.78,4.78,0,0,0-.86,1,2.68,2.68,0,0,0,.28,3.32c.93.82,2.81.42,3-.76a3.05,3.05,0,0,0,3.31,2.77,4.11,4.11,0,0,0,3.52-2.89,2.82,2.82,0,0,0,2.59,2.67,2.88,2.88,0,0,0,3-2.27c.88,1.09,2.19,2.11,3.7,1.64a2.59,2.59,0,0,0,1.72-1.81C345.21,291.07,344.09,289.48,342.64,288.56Z" style="fill:#e0e0e0"></path><path d="M331.54,287a14,14,0,0,0-2.94,2.56,12.83,12.83,0,0,0-1.66,3.44c-.07,0-.11-.46,0-1.17a6.63,6.63,0,0,1,1.21-2.56,6.88,6.88,0,0,1,2.21-1.87A2.39,2.39,0,0,1,331.54,287Z" style="fill:#263238"></path><path d="M334.29,287.31a7.31,7.31,0,0,1,0,2.69,7.6,7.6,0,0,1-.55,2.65,6.83,6.83,0,0,1,0-2.7A7.05,7.05,0,0,1,334.29,287.31Z" style="fill:#263238"></path><path d="M337.75,287.23c0-.05.4.09.83.54a4.1,4.1,0,0,1,1,2.09,7.1,7.1,0,0,1,0,2.26c-.08.57-.18.91-.25.91s-.1-.36-.11-.93a12.9,12.9,0,0,0-.16-2.16,4.89,4.89,0,0,0-.79-2C338,287.52,337.7,287.29,337.75,287.23Z" style="fill:#263238"></path><rect x="253.85" y="257.11" width="157.66" height="12.41" style="fill:#455a64"></rect><path d="M411.52,269.53s0-.28,0-.82,0-1.34,0-2.38c0-2.1,0-5.19-.06-9.22l.1.1-157.66.17h0l.26-.27v12.42l-.26-.26,111.84.11,33.54.08,9.1,0,2.37,0,.82,0-.79,0H408.4l-9,0-33.48.08-112,.11h-.25v-.26c0-3.95,0-8.16,0-12.42v-.26h.27l157.66.17h.09v.09c0,4.06,0,7.17-.05,9.28,0,1,0,1.81,0,2.35S411.52,269.53,411.52,269.53Z" style="fill:#263238"></path><path d="M233.06,258.75a4.87,4.87,0,0,1-.06-1.85,14.91,14.91,0,0,1,3.35-8.15,4.89,4.89,0,0,1,1.34-1.27,21,21,0,0,0-4.63,11.27Z" style="fill:#263238"></path><path d="M227.86,257.3a6.67,6.67,0,0,1,.13-2.13,20.54,20.54,0,0,1,1.49-4.93,20.08,20.08,0,0,1,2.67-4.41,6.21,6.21,0,0,1,1.49-1.52,42.87,42.87,0,0,0-3.69,6.14A43,43,0,0,0,227.86,257.3Z" style="fill:#263238"></path><path d="M422.58,270.5c-.1,0,0-1.34-.16-3.47a32.2,32.2,0,0,0-1.68-8.14,31.85,31.85,0,0,0-3.77-7.41c-1.21-1.76-2.11-2.75-2-2.81s.27.2.69.63a19.78,19.78,0,0,1,1.65,2A27.95,27.95,0,0,1,422.78,267a19.29,19.29,0,0,1-.06,2.56A3.84,3.84,0,0,1,422.58,270.5Z" style="fill:#263238"></path><path d="M427.78,272.18c-.09,0-.09-1.73-.4-4.49a46.15,46.15,0,0,0-7.3-20.17c-1.53-2.32-2.64-3.64-2.57-3.7a5.18,5.18,0,0,1,.84.88,29.13,29.13,0,0,1,2,2.61,41.67,41.67,0,0,1,7.37,20.35,29.92,29.92,0,0,1,.11,3.31A5.3,5.3,0,0,1,427.78,272.18Z" style="fill:#263238"></path></g><g id="freepik--Vase--inject-39"><path d="M382.26,445.56c3.5-1.56,7.25-4.26,6.74-7.73-.45-3.15-4.17-5-7.53-6A62.79,62.79,0,0,0,369,429.4a9.26,9.26,0,0,1-3.16-.63,2.31,2.31,0,0,1-1.49-2.38c.31-1.31,2.17-1.85,2.83-3.06A2.74,2.74,0,0,0,366,420a9.55,9.55,0,0,0-3.94-1.33,101.57,101.57,0,0,0-33.73-.25c-2.11.34-4.49.93-5.42,2.66-.82,1.51-.19,3.31.45,4.89a21.29,21.29,0,0,1-10.13-1.6l-12.13,4.37a6.45,6.45,0,0,1,4.25,6.54,6.87,6.87,0,0,1-5.76,5.54c-1.45.24-3,.09-4.35.58s-2.41,2.09-1.51,3.13c.73.84,2.19.75,3.21,1.31,1.7.95,1.4,3.42,0,4.68s-3.5,1.68-5.42,2.17-4,1.26-4.91,2.85c-1,1.78-.24,4.07,1.33,5.49a13.52,13.52,0,0,0,5.93,2.68,50,50,0,0,0,14.28,1.43c2-.08,4.08-.27,5.9.46s3.15,2.8,2.15,4.34-3.43,1.73-4.3,3.25c-1.08,1.88,1.12,3.94,3.2,5,9.08,4.5,20.33,4.47,30.28,1.78a12.91,12.91,0,0,0,5-2.25c1.37-1.16,2.18-3,1.49-4.58-.47-1.08-1.57-1.95-1.66-3.1s1-2.26,2.25-2.69a11.58,11.58,0,0,1,4-.35,75.12,75.12,0,0,0,17.26-1.7c3.08-.67,6.28-1.64,8.3-3.83s2.21-5.93-.37-7.57c-1.28-.82-3.08-1.06-3.94-2.23a3,3,0,0,1,.68-3.82A12.72,12.72,0,0,1,382.26,445.56Z" style="fill:#ebebeb"></path><path d="M392.39,461.13a17.54,17.54,0,0,1,4.77,9.61c-3.36-.79-7.69-2.77-10-5.32a17.27,17.27,0,0,1-4.29-9.24A17.51,17.51,0,0,1,392.39,461.13Z" style="fill:#455a64"></path><path d="M393.55,466.74a3.87,3.87,0,0,0-.33-.49c-.21-.31-.54-.74-1-1.27a42.12,42.12,0,0,0-3.55-3.92,41.08,41.08,0,0,0-4-3.44c-.54-.41-1-.72-1.3-.93a3.75,3.75,0,0,0-.5-.31,3.21,3.21,0,0,0,.45.37c.31.23.74.56,1.27,1,1.06.84,2.49,2,4,3.47s2.72,2.83,3.59,3.86c.43.52.78.94,1,1.24A3.3,3.3,0,0,0,393.55,466.74Z" style="fill:#263238"></path><path d="M377.81,463a15.24,15.24,0,0,1,1.79,9.2c-2.64-1.45-5.83-4.11-7.19-6.8a15.14,15.14,0,0,1-1.48-8.78A15.23,15.23,0,0,1,377.81,463Z" style="fill:#455a64"></path><path d="M377.49,468a3.81,3.81,0,0,0-.16-.49c-.11-.31-.29-.75-.52-1.3a37,37,0,0,0-4.68-8c-.37-.46-.67-.83-.89-1.08a2.38,2.38,0,0,0-.35-.38,2.7,2.7,0,0,0,.3.42c.2.26.49.64.84,1.12.7.95,1.62,2.29,2.54,3.84s1.63,3,2.13,4.08c.24.54.43,1,.57,1.28A2.6,2.6,0,0,0,377.49,468Z" style="fill:#263238"></path><path d="M383,452.77a15.19,15.19,0,0,0,4.62-8.15c-3,.53-6.84,2-9,4.16a15.1,15.1,0,0,0-4.18,7.86A15.22,15.22,0,0,0,383,452.77Z" style="fill:#455a64"></path><path d="M384.28,447.93a2.7,2.7,0,0,1-.3.42c-.21.26-.52.62-.91,1.06a37.75,37.75,0,0,1-3.29,3.25,40.13,40.13,0,0,1-3.67,2.81c-.49.33-.9.58-1.18.75a2.9,2.9,0,0,1-.46.25,3.06,3.06,0,0,1,.42-.31c.27-.18.67-.45,1.15-.79,1-.68,2.27-1.66,3.63-2.84s2.5-2.34,3.31-3.2l.94-1C384.15,448.06,384.27,447.93,384.28,447.93Z" style="fill:#263238"></path><path d="M396.12,450.08a14.93,14.93,0,0,0,2.3-8.87c-2.67,1.26-5.94,3.67-7.42,6.21a14.69,14.69,0,0,0-2,8.47A14.88,14.88,0,0,0,396.12,450.08Z" style="fill:#455a64"></path><path d="M396.1,445.19a2.74,2.74,0,0,1-.18.47c-.13.29-.33.72-.59,1.23a34.8,34.8,0,0,1-2.28,3.9,38,38,0,0,1-2.75,3.58c-.38.43-.7.78-.93,1a2.08,2.08,0,0,1-.36.34,3.73,3.73,0,0,1,.31-.39c.22-.24.52-.59.89-1a44.18,44.18,0,0,0,2.7-3.59c1-1.46,1.77-2.84,2.32-3.86l.63-1.21A4,4,0,0,1,396.1,445.19Z" style="fill:#263238"></path><path d="M344.41,451.74l.14,0,.41.12,1.57.46,1.13.35,1.37.36c1,.26,2.08.57,3.32.84l1.95.45c.67.15,1.39.28,2.12.42,1.46.31,3,.54,4.7.81a108.22,108.22,0,0,0,10.89,1,103.67,103.67,0,0,0,10.92-.28c1.68-.18,3.27-.31,4.75-.55.73-.11,1.45-.2,2.13-.32l2-.36c1.25-.21,2.37-.5,3.35-.72l1.37-.32,1.14-.31,1.58-.43.42-.11.14,0-.14.05-.4.13-1.57.47-1.14.34-1.37.34c-1,.23-2.1.53-3.35.75l-2,.38c-.69.13-1.41.22-2.15.33-1.48.25-3.07.39-4.75.58a98.91,98.91,0,0,1-10.95.29,105.41,105.41,0,0,1-10.91-1c-1.66-.28-3.25-.51-4.71-.83l-2.12-.44-1.95-.46c-1.24-.28-2.34-.61-3.32-.88l-1.36-.39-1.13-.36-1.55-.51-.41-.14Z" style="fill:#263238"></path><path d="M415.34,442.54a3.17,3.17,0,0,1,2.82.92,2.34,2.34,0,0,1-.25,2.67,6.76,6.76,0,0,1-2.29,1.69,8.61,8.61,0,0,1,6.27.35c.66.3,1.35.84,1.27,1.55a1.81,1.81,0,0,1-.91,1.16,21.35,21.35,0,0,1-5.31,2.78,6.28,6.28,0,0,1,2.44,1.61,2.13,2.13,0,0,1,.11,2.69,2.89,2.89,0,0,1-1.43.71,21.25,21.25,0,0,1-10.24.17,8.9,8.9,0,0,1-4.8-2.48c-1.22-1.37-2.37-3.37-1.33-4.87l-.22.46A16.46,16.46,0,0,1,415.34,442.54Z" style="fill:#FF725E"></path><path d="M401.32,453l.16,0,.46-.1c.19-.05.43-.11.72-.16s.6-.13,1-.19.75-.13,1.18-.17.87-.1,1.35-.15a26.55,26.55,0,0,1,3.12-.05,28,28,0,0,1,3.11.33c.47.09.92.17,1.33.27s.8.2,1.15.3.66.2.94.28l.7.24.44.16.16,0-.15-.07-.43-.18c-.19-.08-.42-.17-.69-.26s-.59-.21-.94-.31-.73-.21-1.15-.31-.87-.19-1.34-.28a24,24,0,0,0-3.12-.35,26.75,26.75,0,0,0-3.14.06c-.48.05-.94.09-1.36.16s-.82.13-1.18.2-.68.14-1,.2l-.72.18-.45.14Z" style="fill:#263238"></path><path d="M408.57,452.08l.31-.13.83-.41c.7-.36,1.65-.88,2.68-1.49s1.92-1.22,2.56-1.67l.76-.54a1.69,1.69,0,0,0,.26-.22,2,2,0,0,0-.3.17l-.77.51c-.66.43-1.57,1-2.59,1.63s-2,1.14-2.64,1.52l-.81.45A1.45,1.45,0,0,0,408.57,452.08Z" style="fill:#263238"></path><g style="opacity:0.30000000000000004"><path d="M416.94,453.66s-3.85-3.09-7.95-1.63A23.68,23.68,0,0,1,416.94,453.66Z"></path></g><path d="M332.74,449.6l.51.91,5.1,1.14-3,8.47,1.64,1.26,7.31-.28L341.24,465l1.65.9,5.74-1.16.88-2.8-5.74-5.39s-3.34-7.88-3.48-7.94-4.37-.33-4.37-.33Z" style="fill:#FF725E"></path><path d="M332.74,449.6l.51.91,5.1,1.14-3,8.47,1.64,1.26,7.31-.28L341.24,465l1.65.9,5.74-1.16.88-2.8-5.74-5.39s-3.34-7.88-3.48-7.94-4.37-.33-4.37-.33Z" style="opacity:0.30000000000000004"></path><path d="M332.74,446.76,342.66,432s21.27,7.17,20.85,32.38l-16.6,2.84,1.21-3.65L341.24,465l2.43-5.26-8.3.4,3.24-10.52h-5.87Z" style="fill:#FF725E"></path><path d="M294.47,470.23l-2.2-.41a14.16,14.16,0,0,0-7.95.28,4.56,4.56,0,0,0-1.87,1,2,2,0,0,0-.51,2c.35.9,1.44,1.23,2.4,1.39a30.33,30.33,0,0,0,8.35.23c1.41-.15,3.11-.69,3.35-2.08A2.4,2.4,0,0,0,294.47,470.23Z" style="fill:#ebebeb"></path><path d="M310.14,444.45l-.82-3.4-3.7-3.58,5.5-4.2v-2l-4.3-4.61h5V424l2.6-.21-6-3.59-5.5,4.9-2.8,2.8s4.7,5.19,4.7,5.49-1.57,2.86-1.53,3.18a11.69,11.69,0,0,1-1.37,2.22l.3,1.79Z" style="fill:#FF725E"></path><path d="M310.14,444.45l-.82-3.4-3.7-3.58,5.5-4.2v-2l-4.3-4.61h5V424l2.6-.21-6-3.59-5.5,4.9-2.8,2.8s4.7,5.19,4.7,5.49-1.57,2.86-1.53,3.18a11.69,11.69,0,0,1-1.37,2.22l.3,1.79Z" style="opacity:0.30000000000000004"></path><path d="M258.51,413.55s5.53-15.62,20.68-15.84a18.05,18.05,0,0,1,12.44,4.93l22.78,21.1-4.27-1.32.32,4.28h-5.91l6.57,6.57-6.9,5.27,5.92,5.91s-10.72-.34-20.06,0c-9.76.37-20.72,3.95-27.62-2.63S254.26,423.93,258.51,413.55Z" style="fill:#FF725E"></path><path d="M292.73,404.07a1.82,1.82,0,0,1,0,.41c0,.31-.05.71-.09,1.21-.1,1.11-.24,2.66-.41,4.65v.11h-5.65l.17-.18c.27,1.89.57,4,.9,6.35l0,.2-.2,0-5.55.69.18-.29c.56,1.72,1.15,3.52,1.69,5.44l.1.37a1.56,1.56,0,0,1,.06.47v0a.27.27,0,0,1-.16.16h-.14l0,0-.17,0-.36.11-1.43.5-2.94,1.11.12-.36,3,5,.12.2-.19.14-4.53,3.38,0-.36,3.48,4.64.14.18-.16.16h0l-3.41,3.46,0-.38,4.17,3.24-.41.24a41.46,41.46,0,0,1,1.11-16.94,42.83,42.83,0,0,1,5.65-12.36,41.89,41.89,0,0,1,5.78-6.91c.76-.73,1.38-1.27,1.8-1.62l.49-.39.18-.12s-.2.2-.6.58-1,.93-1.74,1.67a43.87,43.87,0,0,0-5.63,7,42.72,42.72,0,0,0-5.49,12.29,41.1,41.1,0,0,0-1,16.74l.09.63-.5-.39L277,442l-.23-.18.2-.21,3.41-3.47h0l0,.34c-1.2-1.59-2.37-3.16-3.48-4.64l-.16-.21.21-.16,4.54-3.37-.07.33c-1-1.72-2.05-3.4-3-5l-.15-.26.27-.1,2.95-1.1,1.46-.5.37-.11.2,0,.14,0h.13c-.13.41,0,.11-.06.2h0l-.08,0c-.18,0-.08,0-.11,0v-.11l0-.17-.09-.36c-.52-1.9-1.11-3.71-1.65-5.42l-.08-.25.26,0,5.55-.65-.17.22c-.3-2.33-.59-4.48-.84-6.37l0-.19h.19l5.53.08-.13.11c.23-2,.41-3.53.53-4.63.07-.5.12-.9.16-1.21A1.42,1.42,0,0,1,292.73,404.07Z" style="fill:#263238"></path><path d="M292.73,404.07a15.07,15.07,0,0,1-1.31,1.28c-.85.81-2.06,2-3.45,3.6a53.19,53.19,0,0,0-4.5,5.85,39.17,39.17,0,0,0-4.13,8,42.07,42.07,0,0,0-2,8.78,59.12,59.12,0,0,0-.48,7.37c0,2.1.08,3.81.18,5a12.44,12.44,0,0,1,.11,1.83,2.14,2.14,0,0,1-.11-.46c0-.31-.14-.76-.2-1.35a41.92,41.92,0,0,1-.35-5,53.31,53.31,0,0,1,.38-7.43,40.36,40.36,0,0,1,2-8.9,38.38,38.38,0,0,1,4.22-8.08,48.84,48.84,0,0,1,4.63-5.83,45.3,45.3,0,0,1,3.59-3.5c.44-.39.81-.67,1-.86S292.72,404.05,292.73,404.07Z" style="fill:#263238"></path><path d="M290.72,401.85a16.3,16.3,0,0,1-1.45,1.3,45.79,45.79,0,0,0-3.76,3.7,43.45,43.45,0,0,0-8.72,14.89,44.53,44.53,0,0,0-2.39,17.1,48.26,48.26,0,0,0,.58,5.24,16.53,16.53,0,0,1,.3,1.92,2.58,2.58,0,0,1-.16-.48c-.08-.32-.22-.79-.34-1.4a39.87,39.87,0,0,1-.75-5.26,43.14,43.14,0,0,1,2.26-17.3,42.09,42.09,0,0,1,8.95-15,38,38,0,0,1,3.9-3.61c.48-.4.89-.67,1.15-.87A2.13,2.13,0,0,1,290.72,401.85Z" style="fill:#263238"></path><path d="M297.54,408.12a11.45,11.45,0,0,1-1.11,1.16c-.72.74-1.74,1.83-2.91,3.26A45.12,45.12,0,0,0,283.63,439c-.07,1.85,0,3.34,0,4.37a12.26,12.26,0,0,1,0,1.61,1.19,1.19,0,0,1-.09-.41c0-.27-.11-.67-.15-1.18a36.11,36.11,0,0,1-.19-4.4A42.12,42.12,0,0,1,286,424.8a41.64,41.64,0,0,1,7.28-12.5,35.76,35.76,0,0,1,3.05-3.16c.38-.35.7-.61.91-.78S297.53,408.1,297.54,408.12Z" style="fill:#263238"></path><path d="M286.11,401.35c0,.09-1.3-.57-3.5-1.05a17,17,0,0,0-16,4.8c-1.57,1.61-2.26,2.86-2.34,2.8a3.29,3.29,0,0,1,.45-.89,13.44,13.44,0,0,1,1.63-2.16,16.4,16.4,0,0,1,16.39-4.91,14.24,14.24,0,0,1,2.55.91A3.42,3.42,0,0,1,286.11,401.35Z" style="fill:#fff"></path><path d="M300.47,412.64c-.08.12-.68-.15-1.35-.59s-1.15-.91-1.07-1,.69.15,1.36.59S300.55,412.52,300.47,412.64Z" style="fill:#fff"></path><path d="M308.38,425.87c0,.14-.6.22-1.31.18s-1.28-.2-1.27-.34.59-.23,1.3-.18S308.39,425.73,308.38,425.87Z" style="fill:#fff"></path><path d="M305.47,436c.08.12-.22.44-.67.7s-.87.39-.94.26.23-.44.67-.7S305.4,435.91,305.47,436Z" style="fill:#fff"></path><path d="M343.48,433.55s-4.29,18.76,19.18,30A35.84,35.84,0,0,0,343.48,433.55Z" style="opacity:0.30000000000000004"></path><path d="M362.66,462.9s0-.26-.1-.73-.16-1.19-.33-2.08a42.35,42.35,0,0,0-2.18-7.43,52.48,52.48,0,0,0-2.2-4.89,28.19,28.19,0,0,0-3.32-5.12,33.14,33.14,0,0,0-11-8.59l.36-.19-.09.59a19.17,19.17,0,0,0,.29,7.3,27,27,0,0,0,2.39,6.43,35.84,35.84,0,0,0,6.82,9.42,26.17,26.17,0,0,0,6.4,4.53c.83.42,1.5.71,1.95.9a4.46,4.46,0,0,1,.68.31,4.08,4.08,0,0,1-.72-.22,20.93,20.93,0,0,1-2-.81,25,25,0,0,1-6.57-4.44,35.72,35.72,0,0,1-7-9.47,27.51,27.51,0,0,1-2.46-6.54,19.54,19.54,0,0,1-.31-7.49l.09-.6.06-.34.3.15a33.16,33.16,0,0,1,11.17,8.75,28.9,28.9,0,0,1,3.34,5.24,48.63,48.63,0,0,1,2.15,4.95,39.22,39.22,0,0,1,2,7.52c.14.91.21,1.62.24,2.11A3,3,0,0,1,362.66,462.9Z" style="fill:#263238"></path><path d="M356.22,463.58A6.33,6.33,0,0,1,355,463a11.71,11.71,0,0,1-1.31-.85,19.72,19.72,0,0,1-1.65-1.24,22.84,22.84,0,0,1-1.88-1.67c-.67-.61-1.3-1.35-2-2.1a33.93,33.93,0,0,1-3.71-5.47,33.53,33.53,0,0,1-2.47-6.12c-.25-1-.51-1.92-.65-2.82a22.52,22.52,0,0,1-.34-2.48,20,20,0,0,1-.11-2.07,12.94,12.94,0,0,1,0-1.56,6.56,6.56,0,0,1,.14-1.33c.11,0,0,1.9.31,4.92.1.75.21,1.57.41,2.44s.42,1.79.68,2.76a35.3,35.3,0,0,0,2.47,6,35.73,35.73,0,0,0,3.62,5.4c.66.75,1.27,1.49,1.91,2.1s1.24,1.2,1.81,1.7C354.62,462.56,356.28,463.49,356.22,463.58Z" style="fill:#263238"></path><path d="M337.87,440.44a13.12,13.12,0,0,1-4.07,6.1,26,26,0,0,1,2-3.05A27.81,27.81,0,0,1,337.87,440.44Z" style="fill:#fff"></path><path d="M336.9,457.85a4.09,4.09,0,0,1,.44-2c.38-1,.8-1.84.93-1.79s-.06.93-.44,2S337,457.9,336.9,457.85Z" style="fill:#fff"></path><path d="M343.29,463.1c-.12-.08-.07-.37.11-.64s.43-.43.55-.35.07.37-.11.64S343.41,463.18,343.29,463.1Z" style="fill:#fff"></path><path d="M345.7,448.76a6.49,6.49,0,0,1-1.31-1.77,17.94,17.94,0,0,1-2-5,18.15,18.15,0,0,1-.46-5.31,7.09,7.09,0,0,1,.37-2.18,32.12,32.12,0,0,0,.6,7.37A31.26,31.26,0,0,0,345.7,448.76Z" style="fill:#fff"></path><path d="M319.57,451.86v3s-3.7,9.05-3.89,9.11-6.3-1.18-6.3-1.18l-.24-1.75Z" style="fill:#FF725E"></path><path d="M319.57,451.86v3s-3.7,9.05-3.89,9.11-6.3-1.18-6.3-1.18l-.24-1.75Z" style="opacity:0.30000000000000004"></path><path d="M315.33,448c-.57.46-7.34,4.47-7.22,4.81s1,8.27,1,8.27,6,1.82,6.19,1.36,4.24-10.55,4.24-10.55Z" style="fill:#FF725E"></path><polygon points="314.41 436.02 314.41 440 315.24 443.3 329.61 443.98 329.93 442.83 314.41 436.02" style="fill:#FF725E"></polygon><polygon points="314.41 436.02 314.41 440 315.24 443.3 329.61 443.98 329.93 442.83 314.41 436.02" style="opacity:0.30000000000000004"></polygon><polygon points="314.41 436.02 315.2 440.86 329.93 442.83 323.5 433.55 314.41 436.02" style="fill:#FF725E"></polygon><polygon points="326.41 428.7 326.69 430.11 332.32 433.55 338.76 433.31 341.2 429.05 333.05 427.8 326.41 428.7" style="fill:#FF725E"></polygon><polygon points="326.41 428.7 326.69 430.11 332.32 433.55 338.76 433.31 341.2 429.05 333.05 427.8 326.41 428.7" style="opacity:0.30000000000000004"></polygon><polygon points="335.46 422.96 326.41 428.7 331.8 432.03 338.33 432.03 341.2 429.05 335.46 422.96" style="fill:#FF725E"></polygon><path d="M373.63,440.1a11.65,11.65,0,0,1,6.34,3.3,14.27,14.27,0,0,1-7.47,1.05,11.07,11.07,0,0,1-5.84-3.19A11.4,11.4,0,0,1,373.63,440.1Z" style="fill:#455a64"></path><path d="M376.46,442.66a2.09,2.09,0,0,0-.37-.14l-1-.3a29.46,29.46,0,0,0-3.45-.72,28.39,28.39,0,0,0-3.51-.27c-.45,0-.81,0-1.06,0l-.39,0,.39,0,1.06,0a33.91,33.91,0,0,1,3.49.31c1.36.2,2.57.46,3.44.68.44.1.79.2,1,.26A1.74,1.74,0,0,0,376.46,442.66Z" style="fill:#263238"></path><path d="M380.15,431.81a11.62,11.62,0,0,1,6.33,3.3,14.25,14.25,0,0,1-7.47,1.05,11.49,11.49,0,0,1-5.92-3.29A11.62,11.62,0,0,1,380.15,431.81Z" style="fill:#455a64"></path><path d="M383,434.37a2.09,2.09,0,0,0-.37-.14l-1-.3a27.33,27.33,0,0,0-3.44-.72,31,31,0,0,0-3.51-.28h-1.07a2.06,2.06,0,0,0-.39,0l.39,0,1.06,0a34.31,34.31,0,0,1,3.5.31c1.35.2,2.57.46,3.44.68l1,.26A1.73,1.73,0,0,0,383,434.37Z" style="fill:#263238"></path><path d="M376.67,423.25a11.67,11.67,0,0,0-3.61-6.16,14.3,14.3,0,0,0-.69,7.51,11.6,11.6,0,0,0,3.58,5.76A11.65,11.65,0,0,0,376.67,423.25Z" style="fill:#455a64"></path><path d="M374,420.56a2.11,2.11,0,0,1,.15.36c.1.23.22.58.36,1a28.89,28.89,0,0,1,.88,3.41,27.13,27.13,0,0,1,.45,3.49c0,.45,0,.82,0,1.07a1.49,1.49,0,0,1,0,.39s0-.14,0-.39,0-.61-.08-1.06a34.67,34.67,0,0,0-1.33-6.88l-.31-1A2,2,0,0,1,374,420.56Z" style="fill:#263238"></path><path d="M369.69,430.9a11.6,11.6,0,0,0-3.61-6.16,14.19,14.19,0,0,0-.68,7.51A11.46,11.46,0,0,0,369,438,11.61,11.61,0,0,0,369.69,430.9Z" style="fill:#455a64"></path><path d="M367,428.21a1.38,1.38,0,0,1,.16.36c.09.23.21.57.36,1a28.33,28.33,0,0,1,1.33,6.9c0,.45,0,.81,0,1.07a2.39,2.39,0,0,1,0,.39,2.55,2.55,0,0,1,0-.39c0-.25-.05-.62-.09-1.06a32.15,32.15,0,0,0-.48-3.48c-.26-1.34-.58-2.54-.84-3.4-.13-.43-.24-.78-.32-1S367,428.21,367,428.21Z" style="fill:#263238"></path><path d="M363.75,447.88a1,1,0,0,1,.09-.28c.06-.2.16-.47.28-.81.06-.17.13-.36.2-.57s.18-.44.28-.68c.21-.48.42-1,.71-1.63.15-.3.29-.61.45-.94s.34-.65.52-1c.35-.69.79-1.4,1.24-2.15a44.17,44.17,0,0,1,3.32-4.6,45.53,45.53,0,0,1,4-4.08c.66-.57,1.28-1.12,1.9-1.59.31-.23.6-.48.89-.69l.84-.6c.53-.39,1.05-.7,1.49-1l.61-.4.54-.3.74-.42a1.56,1.56,0,0,1,.26-.13l-.25.16-.72.45-.52.32-.61.4c-.43.29-.94.61-1.46,1l-.84.61c-.29.22-.57.46-.88.7-.61.47-1.22,1-1.88,1.59a41.72,41.72,0,0,0-7.25,8.65c-.44.74-.88,1.44-1.24,2.13-.18.34-.37.66-.53,1l-.45.92c-.3.59-.53,1.14-.74,1.62l-.29.67-.22.57-.31.79A2.42,2.42,0,0,1,363.75,447.88Z" style="fill:#263238"></path><path d="M383.89,422.47a11.61,11.61,0,0,1,7-1.44,14.24,14.24,0,0,1-5.13,5.53,11.51,11.51,0,0,1-6.67,1.19A11.59,11.59,0,0,1,383.89,422.47Z" style="fill:#455a64"></path><path d="M387.7,422.67l-.37.13c-.24.09-.58.22-1,.41a28.19,28.19,0,0,0-3.12,1.62,28.59,28.59,0,0,0-2.9,2c-.35.28-.63.51-.82.68s-.29.26-.28.27l.31-.23.85-.65c.72-.54,1.73-1.25,2.9-2a34.65,34.65,0,0,1,3.1-1.65l1-.44Z" style="fill:#263238"></path><path d="M397,422.32a2.49,2.49,0,0,1,2.29-.45,1.81,1.81,0,0,1,.85,1.92,5.23,5.23,0,0,1-.92,2,6.83,6.83,0,0,1,4.44-2.17c.56,0,1.25.06,1.46.58a1.48,1.48,0,0,1-.17,1.15,17.39,17.39,0,0,1-2.58,3.94,4.79,4.79,0,0,1,2.29.17,1.68,1.68,0,0,1,1.11,1.8,2.37,2.37,0,0,1-.71,1,16.64,16.64,0,0,1-7,4,7,7,0,0,1-4.25.14c-1.36-.47-2.91-1.4-2.77-2.83l0,.4A12.94,12.94,0,0,1,397,422.32Z" style="fill:#FF725E"></path><path d="M391.39,434.85l.11-.09.27-.24.43-.39.59-.5c.22-.18.47-.37.74-.57l.88-.62a22.64,22.64,0,0,1,2.11-1.23,19.8,19.8,0,0,1,2.26-1c.36-.12.7-.24,1-.33s.63-.17.9-.24.53-.12.76-.16l.57-.11.36-.06.13,0h-.13l-.37,0a5.44,5.44,0,0,0-.57.09c-.23,0-.49.08-.76.14l-.91.23c-.33.09-.67.2-1,.32a20,20,0,0,0-2.28,1,21.6,21.6,0,0,0-2.12,1.25c-.31.22-.61.42-.87.63s-.52.4-.74.58-.41.36-.58.51-.31.29-.42.41l-.26.26C391.42,434.81,391.39,434.84,391.39,434.85Z" style="fill:#263238"></path><path d="M396,431.46a1.37,1.37,0,0,0,.16-.21c.11-.14.25-.35.42-.6.34-.51.79-1.23,1.26-2s.85-1.57,1.12-2.13c.13-.27.24-.5.31-.66s.1-.24.09-.25l-.13.23c-.09.17-.21.39-.34.65-.29.54-.68,1.29-1.15,2.11s-.9,1.53-1.23,2.06l-.38.62A1,1,0,0,0,396,431.46Z" style="fill:#263238"></path><g style="opacity:0.30000000000000004"><path d="M402.38,429.33s-3.82-.64-6.08,1.93A18.61,18.61,0,0,1,402.38,429.33Z"></path></g></g><g id="freepik--Character--inject-39"><path d="M165.68,80.4c1.78-3,.83-7.11-1.62-9.59a13.46,13.46,0,0,0-9.58-3.49,40.1,40.1,0,0,0-10.26,1.84,11.13,11.13,0,0,0-19.62,3.17,7.07,7.07,0,0,0-9.72,7.88L129.44,88l12.2,32.24a13.63,13.63,0,0,0,22.62-14.79,11.86,11.86,0,0,0,2.82-2.56,11.9,11.9,0,0,0,6.59-6.44C176.15,90.21,172.18,82.21,165.68,80.4Z" style="fill:#263238"></path><path d="M145.8,140.53c-.2-5-.35-8.38-.35-8.34s9.64-2.11,11-14.91c.67-6.36-.17-16.69-1.14-25.12-.87-7.58-6.39-16.66-13.94-15.47L118,83.89c-2.29.36-3,2.35-2.83,4.67L115,89.65l3,36.28-.21,15.48c.53,6.9,7.58,12.94,14.5,13h0A13.35,13.35,0,0,0,145.8,140.53Z" style="fill:#ffbf9d"></path><path d="M152.53,103.38a1.63,1.63,0,0,1-1.48,1.73,1.57,1.57,0,0,1-1.76-1.38,1.64,1.64,0,0,1,1.49-1.73A1.56,1.56,0,0,1,152.53,103.38Z" style="fill:#263238"></path><path d="M153,98.94c-.19.22-1.47-.63-3.22-.53s-3,1-3.19.83.09-.49.63-.92a4.42,4.42,0,0,1,2.54-.93,4.21,4.21,0,0,1,2.57.69C152.9,98.46,153.11,98.84,153,98.94Z" style="fill:#263238"></path><path d="M136.7,104.11a1.63,1.63,0,0,1-1.49,1.72,1.55,1.55,0,0,1-1.75-1.38,1.62,1.62,0,0,1,1.48-1.72A1.56,1.56,0,0,1,136.7,104.11Z" style="fill:#263238"></path><path d="M136.27,99.46c-.19.22-1.47-.62-3.22-.53s-3,1-3.19.83.09-.48.63-.92a4.49,4.49,0,0,1,2.54-.93,4.33,4.33,0,0,1,2.58.69C136.16,99,136.37,99.36,136.27,99.46Z" style="fill:#263238"></path><path d="M143.18,111.53a11.55,11.55,0,0,1,2.82-.66c.44-.07.86-.18.92-.49a2.23,2.23,0,0,0-.37-1.31l-1.49-3.33C143,101,141.44,97.07,141.63,97s2,3.71,4.12,8.46c.5,1.17,1,2.29,1.44,3.36a2.58,2.58,0,0,1,.33,1.74,1.13,1.13,0,0,1-.71.69,2.92,2.92,0,0,1-.75.15A11.08,11.08,0,0,1,143.18,111.53Z" style="fill:#263238"></path><path d="M145.45,132.19a32.28,32.28,0,0,1-17.22-3.66s4.74,8.73,17.38,6.9Z" style="fill:#ff9a6c"></path><path d="M136,92.31c-.19.47-1.93.18-4,.36s-3.75.68-4,.24c-.11-.21.19-.64.88-1.08a6.9,6.9,0,0,1,6.09-.46C135.76,91.7,136.12,92.08,136,92.31Z" style="fill:#263238"></path><path d="M152.8,92.51c-.34.42-1.79.08-3.51.15s-3.15.43-3.51,0c-.16-.2.05-.61.67-1a5.6,5.6,0,0,1,2.82-.79,5.36,5.36,0,0,1,2.83.65C152.73,91.91,153,92.31,152.8,92.51Z" style="fill:#263238"></path><path d="M124.63,76.56a8.69,8.69,0,0,0,10.66,8.07c1.92-.45,4-1.53,5.73-.58s2,3.65,3.65,4.94c2.34,1.83,5.8-.17,8.68.53,2.23.55,3.7,2.57,5.25,4.27s3.8,3.26,6,2.5a25.91,25.91,0,0,0-1.16-5.81,8.62,8.62,0,0,0-3.56-4.6,31.36,31.36,0,0,1-2.88-1.5c-1.9-1.38-2.44-3.92-3.67-5.91A9.51,9.51,0,0,0,145.82,74c-2.51-.14-5,.74-7.51.25-1.82-.37-3.45-1.46-5.29-1.72-3.58-.5-6.76,2.21-9.2,4.87" style="fill:#263238"></path><path d="M136.23,81.05c-1.61-.37-4.91-1.24-5.84-2.58A9.73,9.73,0,0,0,121.7,74a8,8,0,0,0-6.92,6.7,11.55,11.55,0,0,0-9.6,6.87,13.39,13.39,0,0,0,1,12.43,24.06,24.06,0,0,1,1.45,3,19.53,19.53,0,0,0-2.52,2.76c-3.5,5.36,3.22,8.68,3.22,8.68-.59,3.88,3,4.42,5.29,4.77s2.6,6.66,4.42,6.7l1.15-19.17a2.39,2.39,0,0,0,.81.28c4.31.76,4.46-7.59,3.4-9.93a24.7,24.7,0,0,0,4-4.71A17.84,17.84,0,0,0,129,83.69C130.5,83.7,136.94,81.22,136.23,81.05Z" style="fill:#263238"></path><path d="M119.65,107.86a3.71,3.71,0,0,0-5.57-2.88c-1.25.81-2.16,2.35-1.9,5.21.69,7.63,8.2,5.36,8.2,5.14S120,111,119.65,107.86Z" style="fill:#ffbf9d"></path><path d="M117.79,112.65s-.13.11-.34.23a1.36,1.36,0,0,1-1,.11c-.83-.22-1.62-1.44-1.78-2.81a4.27,4.27,0,0,1,.2-1.94,1.53,1.53,0,0,1,.9-1.11.69.69,0,0,1,.82.29c.12.21.09.36.13.37s.15-.14.06-.45a.82.82,0,0,0-.34-.45,1,1,0,0,0-.75-.13,1.91,1.91,0,0,0-1.29,1.31,4.54,4.54,0,0,0-.26,2.17c.18,1.53,1.1,2.9,2.23,3.12a1.44,1.44,0,0,0,1.2-.31C117.79,112.84,117.81,112.66,117.79,112.65Z" style="fill:#ff9a6c"></path><path d="M108.76,91.87a1.76,1.76,0,0,1-.33-.26,10.78,10.78,0,0,1-.83-.87,8.93,8.93,0,0,1-1.95-4,6.88,6.88,0,0,1,.09-3.08,6.33,6.33,0,0,1,1.78-3.06,5.07,5.07,0,0,1,3.66-1.37,4.68,4.68,0,0,1,3.73,1.89l-.36.17,0-.08a10.52,10.52,0,0,1,.43-8,6.91,6.91,0,0,1,5.24-3.78,5.62,5.62,0,0,1,4.19,1.31,4.18,4.18,0,0,1,.8.92,1.8,1.8,0,0,1,.19.37,6.6,6.6,0,0,0-1.09-1.17,5.62,5.62,0,0,0-4.06-1.15,6.66,6.66,0,0,0-4.94,3.67,10.2,10.2,0,0,0-.37,7.68l0,.08.36,1.19-.71-1a4.32,4.32,0,0,0-3.41-1.73,4.71,4.71,0,0,0-3.4,1.25,6,6,0,0,0-1.71,2.87,6.77,6.77,0,0,0-.13,3,9.14,9.14,0,0,0,1.79,3.91C108.35,91.46,108.79,91.84,108.76,91.87Z" style="fill:#263238"></path><path d="M113.76,114.28a5.3,5.3,0,0,0-.92.5,4.71,4.71,0,0,0-1.49,2.36,5.5,5.5,0,0,0-.25,1.94,4.41,4.41,0,0,0,.68,2.1,5.09,5.09,0,0,0,1.8,1.67,4.4,4.4,0,0,0,2.54.58,4.56,4.56,0,0,0,2.45-.92,4.43,4.43,0,0,0,1.46-1.94,5,5,0,0,0-.1-4.08,3.91,3.91,0,0,0-2.07-1.85,4.5,4.5,0,0,0-1-.2h.27a2.51,2.51,0,0,1,.78.14,3.8,3.8,0,0,1,2.17,1.85,5.13,5.13,0,0,1,.16,4.22,4.72,4.72,0,0,1-1.53,2,4.77,4.77,0,0,1-2.55,1,4.54,4.54,0,0,1-2.66-.61,5.14,5.14,0,0,1-1.86-1.75,4.59,4.59,0,0,1-.7-2.19,5.67,5.67,0,0,1,.29-2,4.57,4.57,0,0,1,1.59-2.39,2.73,2.73,0,0,1,.7-.36A1.32,1.32,0,0,1,113.76,114.28Z" style="fill:#455a64"></path><path d="M143,115.74a1.66,1.66,0,0,0-1.85-.93,1.4,1.4,0,0,0-1.36,1.17,1.75,1.75,0,0,0,.26,1.38,1.84,1.84,0,0,0,1,.72,1.8,1.8,0,0,0,1.46-.27A2.19,2.19,0,0,0,143,115.74Z" style="fill:#ff9a6c"></path><polygon points="121.43 404.62 125.36 438.53 140.22 436.27 141.22 402.85 121.43 404.62" style="fill:#ffbf9d"></polygon><path d="M140.27,429.55s-10,8.45-15.53,2.24l-1.1,3.31-4.37,23.29a3.07,3.07,0,0,0,1.94,3.53,2.87,2.87,0,0,0,3-.83c4-4.55,18.76-21.36,18.46-23.46l-.46-5.6a2.82,2.82,0,0,0-2-2.48Z" style="fill:#FF725E"></path><g style="opacity:0.6000000000000001"><path d="M121.74,462l20.82-26.36.08,1.22a3.47,3.47,0,0,1-.88,2.79c-1.65,2.66-6.3,8.69-17.44,21.39a2.88,2.88,0,0,1-2.58,1Z" style="fill:#fff"></path></g><g style="opacity:0.6000000000000001"><path d="M139,432.29a1.83,1.83,0,0,0-.33,2.38,1.66,1.66,0,0,0,2.3.34,1.94,1.94,0,0,0,.33-2.52,1.71,1.71,0,0,0-2.43-.08" style="fill:#fff"></path></g><path d="M127.35,448.93a8.75,8.75,0,0,0-2.62-2.06c-1.72-.75-3.25-.22-3.3-.4s.32-.32,1-.46a4.34,4.34,0,0,1,2.56.27,4.45,4.45,0,0,1,2,1.63C127.35,448.48,127.42,448.9,127.35,448.93Z" style="fill:#263238"></path><path d="M125.6,453c-.13.14-1.1-.74-2.59-1.06s-2.72,0-2.78-.16,1.23-.85,2.92-.46S125.74,452.86,125.6,453Z" style="fill:#263238"></path><path d="M130.77,443.69c-.13.15-1.61-1.2-3.88-1.9s-4.24-.5-4.26-.69,2-.71,4.44.08S130.9,443.6,130.77,443.69Z" style="fill:#263238"></path><path d="M130.78,436.71c-.07.18-1.67-.38-3.71-.3s-3.61.69-3.68.52,1.48-1.1,3.67-1.16S130.86,436.57,130.78,436.71Z" style="fill:#263238"></path><path d="M125.91,436.44a2.9,2.9,0,0,1,.08-1.1,7.68,7.68,0,0,1,1.17-2.76,3.3,3.3,0,0,1,1.58-1.44,1.13,1.13,0,0,1,1.27.41,1.92,1.92,0,0,1,.3,1.35,4.15,4.15,0,0,1-4,3.46,4.73,4.73,0,0,1-4.36-3.05,1.71,1.71,0,0,1,.08-1.41,1.12,1.12,0,0,1,1.25-.48,4,4,0,0,1,1.75,1.19,8.65,8.65,0,0,1,1.67,2.46,2.78,2.78,0,0,1,.32,1,14,14,0,0,0-2.3-3.17,3.7,3.7,0,0,0-1.54-1,.6.6,0,0,0-.69.26,1.21,1.21,0,0,0,0,.92,4.22,4.22,0,0,0,3.81,2.6,3.6,3.6,0,0,0,3.44-2.88,1.43,1.43,0,0,0-.18-1,.62.62,0,0,0-.7-.23,3,3,0,0,0-1.36,1.2A11.31,11.31,0,0,0,125.91,436.44Z" style="fill:#263238"></path><path d="M180.31,431.34c-.34-.52-3.46-11.87-3.46-11.87l19.24-5.24,2.73,16.36Z" style="fill:#ffbf9d"></path><path d="M198.65,427.37l0,1.3s21.17,8.63,21.44,12.83l-41.84.3.48-14.63C185,430.15,191.5,430.44,198.65,427.37Z" style="fill:#FF725E"></path><g style="opacity:0.6000000000000001"><path d="M183,431.82a1.79,1.79,0,0,0-1.17,2.05,1.65,1.65,0,0,0,1.94,1.24,1.91,1.91,0,0,0,1.22-2.19,1.68,1.68,0,0,0-2.14-1.05" style="fill:#fff"></path></g><g style="opacity:0.6000000000000001"><path d="M178.27,441.8l.12-3.52,40.06,1s1.86.84,1.66,2.22Z" style="fill:#fff"></path></g><path d="M198.82,428.8c0,.21-1,.32-2,1s-1.53,1.61-1.72,1.52.11-1.32,1.33-2.14S198.86,428.6,198.82,428.8Z" style="fill:#263238"></path><path d="M203.22,430.67c.05.21-.84.58-1.53,1.49s-.88,1.88-1.08,1.87-.34-1.22.53-2.34S203.21,430.47,203.22,430.67Z" style="fill:#263238"></path><path d="M205.75,436.17c-.19.05-.48-1,0-2.2s1.47-1.65,1.55-1.48-.5.82-.91,1.79S206,436.15,205.75,436.17Z" style="fill:#263238"></path><path d="M170.09,232c.91.6,7.8,41.88,16.78,96.77,7.38,45.15,11.68,90.86,11.68,90.86l-20.7,4s-19.5-56-29.81-96.21c-9.51-37.12-14.16-63.11-14.16-63.11V237.17Z" style="fill:#263238"></path><path d="M107.3,216.8s-19.07,25.77-17.47,52.68c1,16.09,31.6,153.31,31.6,153.31h22.81l-7.45-151.15,2.18-35.2Z" style="fill:#263238"></path><path d="M168.17,144.93s6.51,1.06,9.93,10.33c3.56,9.65,7.62,32.3,7.62,32.3l-24.67,2.31.78-37.05Z" style="fill:#FF725E"></path><path d="M99.5,144.54S89,147.33,87.61,164.35c-.79,9.39-.61,25.52-.61,25.52s3.24,1.12,12.22-2.49c7.26-2.92,14.35.11,14.35.11l-11.86-35.4Z" style="fill:#FF725E"></path><path d="M117.56,134.32l-4.46,5.15-14.84,5.46,3.22,62.89-9.22,37.85s9,1.74,12.58,6.5,14.17,10.17,27.37,11,24.44-7.35,29.64-9.95,13.57-4.73,14.61-7.58c.68-1.87-7.26-57.54-7.26-57.54l-1-43.2-13.49-3.12-5.27-4.38-19.28,16.1-4.35-5.4Z" style="fill:#FF725E"></path><path d="M174.92,234.19a4.39,4.39,0,0,1-.72.49L172.05,236c-1.86,1.12-4.57,2.74-8,4.6a97.87,97.87,0,0,1-12.44,5.76,54.41,54.41,0,0,1-16.39,3.57,38.45,38.45,0,0,1-16.53-2.59,32.11,32.11,0,0,1-6.43-3.58c-1.86-1.37-3.47-2.77-5-3.93a21.46,21.46,0,0,0-4.47-2.68,12.78,12.78,0,0,0-3.78-1,10.7,10.7,0,0,0-3.34.25.61.61,0,0,1,.21-.08,3.39,3.39,0,0,1,.63-.18A8.29,8.29,0,0,1,99,236a12.51,12.51,0,0,1,3.89.92,21.39,21.39,0,0,1,4.57,2.66c1.58,1.14,3.21,2.54,5.06,3.87a31.46,31.46,0,0,0,6.35,3.48,38.42,38.42,0,0,0,16.33,2.52,55,55,0,0,0,16.24-3.5,101.4,101.4,0,0,0,12.43-5.63c3.45-1.82,6.18-3.39,8.08-4.45l2.19-1.23A6.49,6.49,0,0,1,174.92,234.19Z" style="fill:#fff"></path><path d="M172.8,218.53a3.69,3.69,0,0,1-.64.49c-.43.31-1.07.76-1.91,1.3a77.74,77.74,0,0,1-7.35,4.26,71.38,71.38,0,0,1-11.67,4.72A59.8,59.8,0,0,1,136,231.88a52,52,0,0,1-15.32-1.71,45.36,45.36,0,0,1-6.38-2.21c-1.94-.85-3.67-1.78-5.26-2.6a21,21,0,0,0-7.9-2.75,12.67,12.67,0,0,0-3.07.19,5.85,5.85,0,0,1,.77-.22,8.54,8.54,0,0,1,2.31-.17c2,0,4.87,1,8.06,2.62,1.6.8,3.34,1.71,5.26,2.53a45.12,45.12,0,0,0,6.33,2.15A52.15,52.15,0,0,0,136,231.35a59.94,59.94,0,0,0,15.09-2.51,74.67,74.67,0,0,0,11.65-4.59c3.2-1.58,5.7-3.06,7.4-4.1l2-1.21A6,6,0,0,1,172.8,218.53Z" style="fill:#fff"></path><path d="M170.39,204.89a4.22,4.22,0,0,1-.48.53,12.71,12.71,0,0,1-1.54,1.36,21.77,21.77,0,0,1-6.78,3.28,69.88,69.88,0,0,1-11,2.14,108.33,108.33,0,0,1-38.33-1.91c-3.09-.75-5.57-1.46-7.26-2l-1.94-.66a3.51,3.51,0,0,1-.67-.26,4.63,4.63,0,0,1,.7.16l2,.56c1.71.49,4.19,1.14,7.28,1.84A115.51,115.51,0,0,0,137,212.56a110.3,110.3,0,0,0,13.6-.84,73.7,73.7,0,0,0,10.93-2,22.73,22.73,0,0,0,6.77-3.1C169.69,205.59,170.35,204.85,170.39,204.89Z" style="fill:#fff"></path><path d="M169.68,189.87a5.46,5.46,0,0,1-.67.22l-1.94.54c-.84.24-1.87.52-3.08.8s-2.58.63-4.12.93c-3.05.67-6.72,1.33-10.82,1.92s-8.62,1.05-13.39,1.34-9.32.3-13.45.22-7.86-.35-11-.66c-1.56-.12-3-.31-4.2-.46s-2.29-.29-3.15-.42l-2-.32a3.24,3.24,0,0,1-.69-.15,3.69,3.69,0,0,1,.7,0l2,.22c.87.11,1.93.24,3.17.35s2.63.27,4.19.37c3.11.26,6.82.45,11,.55s8.66,0,13.41-.26,9.27-.76,13.36-1.3,7.75-1.18,10.81-1.8c1.53-.28,2.91-.6,4.12-.86s2.25-.5,3.1-.7l2-.45A3,3,0,0,1,169.68,189.87Z" style="fill:#fff"></path><path d="M162.42,174.52a2.18,2.18,0,0,1-.54.19l-1.6.44c-1.38.39-3.4.87-5.91,1.42a105.67,105.67,0,0,1-19.94,2.25c-7.86.11-14.94-.49-20.06-.88l-6.05-.52-1.65-.16a2.51,2.51,0,0,1-.57-.1,3.22,3.22,0,0,1,.58,0l1.65.07,6.07.35c5.12.3,12.2.84,20,.73a115.17,115.17,0,0,0,19.88-2.09c2.51-.5,4.54-.92,5.94-1.25l1.61-.35A2.05,2.05,0,0,1,162.42,174.52Z" style="fill:#fff"></path><path d="M165.94,158.25a3.23,3.23,0,0,1-.67.07l-1.93.12-7.11.37a188.43,188.43,0,0,0-23.29,2.63c-9,1.6-17.39,2.27-23.41,1.92a57.66,57.66,0,0,1-7.1-.74c-.83-.13-1.46-.29-1.9-.37a3.09,3.09,0,0,1-.65-.18,4.78,4.78,0,0,1,.67.07c.44.06,1.08.18,1.92.28a66.55,66.55,0,0,0,7.07.57,115.58,115.58,0,0,0,23.31-2.06,167.28,167.28,0,0,1,23.36-2.49c3-.12,5.44-.18,7.12-.21h1.94A2.88,2.88,0,0,1,165.94,158.25Z" style="fill:#fff"></path><polygon points="113.57 140.79 118.2 160.73 121 156.82 113.57 140.79" style="opacity:0.30000000000000004"></polygon><path d="M128.2,151.85a2.41,2.41,0,0,1-.33.63c-.25.4-.63,1-1.13,1.67-1,1.41-2.53,3.31-4.1,5.68l-.22.34-.19-.36c-.9-1.72-1.85-3.64-2.82-5.67-1.92-4-3.54-7.68-4.7-10.35-.57-1.34-1-2.42-1.33-3.18a6.31,6.31,0,0,1-.42-1.19,6.16,6.16,0,0,1,.61,1.11c.39.83.89,1.87,1.48,3.11,1.28,2.73,3,6.31,4.83,10.28,1,2,1.9,3.94,2.77,5.67l-.41,0c1.63-2.39,3.22-4.23,4.27-5.59S128.16,151.82,128.2,151.85Z" style="fill:#263238"></path><path d="M145.41,189.18a2.39,2.39,0,0,1,.41-.09l1.19-.19c1-.16,2.57-.38,4.54-.6,3.93-.46,9.58-1,16.43-1.14h.2l0,.19c.49,4.17,1,8.77,1.6,13.69.28,2.46.58,5,.88,7.61q.23,2,.45,4c.08.67.16,1.34.23,2a8.11,8.11,0,0,1,.1,2.11,1.93,1.93,0,0,1-.81,1.28,3.59,3.59,0,0,1-1.36.48c-.93.12-1.79.13-2.67.2l-5.17.34-5,.32a17.9,17.9,0,0,1-4.85,0,5,5,0,0,1-3.52-3,14.91,14.91,0,0,1-1-4.23c-.34-2.76-.6-5.33-.8-7.69-.39-4.7-.6-8.52-.73-11.15-.05-1.29-.1-2.31-.13-3,0-.32,0-.58,0-.79a1.1,1.1,0,0,1,0-.27.84.84,0,0,1,.05.27c0,.2,0,.46.07.78.05.74.13,1.75.22,3,.2,2.64.46,6.45.9,11.14.22,2.35.5,4.92.86,7.66a14.16,14.16,0,0,0,1,4.1,4.47,4.47,0,0,0,3.21,2.67,17.56,17.56,0,0,0,4.7,0l5-.34,5.17-.35c.87-.07,1.78-.09,2.62-.2s1.63-.51,1.74-1.33a8.26,8.26,0,0,0-.1-2c-.08-.67-.16-1.34-.23-2q-.24-2-.45-4-.45-3.92-.86-7.61c-.56-4.93-1.07-9.53-1.54-13.7l.22.19c-6.84.11-12.49.56-16.42.95L147,189l-1.19.13A2.63,2.63,0,0,1,145.41,189.18Z" style="fill:#263238"></path><path d="M169,195c0,.15-5.13.57-11.48,1s-11.5.58-11.51.43,5.13-.57,11.48-.95S169,194.87,169,195Z" style="fill:#263238"></path><path d="M137.31,263.27a.94.94,0,0,1,0-.27c0-.22,0-.48,0-.81,0-.74,0-1.77-.06-3.07,0-2.72-.09-6.58-.15-11.33-.13-9.59-.32-22.78-.52-37.35s-.2-27.81-.09-37.37c.05-4.79.12-8.65.2-11.33,0-1.3.08-2.33.1-3.08,0-.32,0-.58,0-.79a1,1,0,0,1,0-.28.9.9,0,0,1,0,.28c0,.21,0,.47,0,.8,0,.74,0,1.77,0,3.08,0,2.71,0,6.57,0,11.32,0,9.56.07,22.77.24,37.36s.34,27.8.37,37.36c0,4.78,0,8.65,0,11.32,0,1.31,0,2.34,0,3.08,0,.33,0,.59,0,.81A.94.94,0,0,1,137.31,263.27Z" style="fill:#263238"></path><path d="M107.92,233a81.91,81.91,0,0,1-.2,9.42,83.63,83.63,0,0,1-.73,9.39,86.37,86.37,0,0,1,.21-9.42A88.56,88.56,0,0,1,107.92,233Z" style="fill:#263238"></path><path d="M105,237.3a16.58,16.58,0,0,1-.81,4.1,16.83,16.83,0,0,1-1.32,4,17,17,0,0,1,.82-4.1A16.77,16.77,0,0,1,105,237.3Z" style="fill:#263238"></path><path d="M161.76,246.42a12,12,0,0,1-1-2.48,50.68,50.68,0,0,1-2.62-12.72,11.49,11.49,0,0,1,0-2.7,17.45,17.45,0,0,1,.39,2.66c.2,1.65.53,3.91,1,6.38s1.1,4.67,1.56,6.26A18,18,0,0,1,161.76,246.42Z" style="fill:#263238"></path><path d="M154.07,143a6.29,6.29,0,0,1-.83,1l-2.4,2.59c-2,2.17-4.89,5.14-8.06,8.39l-4.48,4.58c-.36.35-.66.7-1.06,1a1.62,1.62,0,0,1-.71.34,1.18,1.18,0,0,1-.79-.16,3,3,0,0,1-.89-1l-.61-1c-.72-1.21-1.33-2.22-1.82-3a6.56,6.56,0,0,1-.6-1.15,6.56,6.56,0,0,1,.78,1l2,2.93.64,1a2.61,2.61,0,0,0,.77.87.86.86,0,0,0,1-.17c.32-.27.65-.66,1-1l4.46-4.61c3.16-3.26,6.05-6.19,8.16-8.29l2.52-2.47A6.56,6.56,0,0,1,154.07,143Z" style="fill:#263238"></path><g style="opacity:0.30000000000000004"><path d="M170.73,210.31q-14.76-28-31-55.3l-3.95,7.26c4.64,8.13,4.81,18,7.21,27a55.31,55.31,0,0,0,15,25.44c2.15,2.07,4.65,4,7.62,4.38s6.35-1.68,6.47-4.66A8.49,8.49,0,0,0,170.73,210.31Z"></path></g><g style="opacity:0.30000000000000004"><path d="M109.26,206.78l-9.2,9.35c1.24,3.35,5,5.3,8.6,5a13.37,13.37,0,0,0,9-5.18,32.1,32.1,0,0,0,4.91-9.45,137.63,137.63,0,0,0,7.62-34.68Q119.74,189.32,109.26,206.78Z"></path></g><path d="M105.86,171.49a16.08,16.08,0,0,1-2.13-2.2c-1.26-1.39-3-3.35-4.93-5.44a66.15,66.15,0,0,0-5.25-5.11c-1.42-1.21-2.4-1.84-2.35-1.92a2.48,2.48,0,0,1,.74.37,16.58,16.58,0,0,1,1.84,1.27,45.49,45.49,0,0,1,5.4,5c2,2.11,3.64,4.1,4.83,5.57A18.54,18.54,0,0,1,105.86,171.49Z" style="fill:#263238"></path><path d="M173.08,149a25.12,25.12,0,0,1-1.92,2.28,49.46,49.46,0,0,0-4.22,5.79,50.48,50.48,0,0,0-3.32,6.35,26.36,26.36,0,0,1-1.2,2.73,13.17,13.17,0,0,1,.86-2.87,37.44,37.44,0,0,1,3.22-6.49,38.09,38.09,0,0,1,4.39-5.75A12.22,12.22,0,0,1,173.08,149Z" style="fill:#263238"></path><path d="M116.17,146.49c0,.09-1.39.35-3.6,1a42.37,42.37,0,0,0-15.73,8.35c-1.77,1.47-2.77,2.49-2.83,2.43a3.75,3.75,0,0,1,.63-.78c.43-.49,1.1-1.15,2-1.93a37.27,37.27,0,0,1,15.88-8.43,26.8,26.8,0,0,1,2.69-.53A4.21,4.21,0,0,1,116.17,146.49Z" style="fill:#fff"></path><path d="M171,150.76a17.16,17.16,0,0,1-2.71-.9c-1.65-.6-3.94-1.4-6.49-2.21s-4.89-1.45-6.58-1.91a15.84,15.84,0,0,1-2.73-.81,13.48,13.48,0,0,1,2.81.46c1.73.36,4.09,1,6.66,1.77s4.84,1.67,6.47,2.36A13.93,13.93,0,0,1,171,150.76Z" style="fill:#fff"></path><path d="M180.46,164.78a73.34,73.34,0,0,1-8.53.9,68.56,68.56,0,0,1-8.56.37,71.82,71.82,0,0,1,8.52-.89A70,70,0,0,1,180.46,164.78Z" style="fill:#fff"></path><path d="M183.55,180.21a4.94,4.94,0,0,1-1.71.54,27.57,27.57,0,0,1-4.3.48c-1.69.06-3.21.05-4.31.05a6.85,6.85,0,0,1-1.79-.09c0-.17,2.72-.4,6.07-.48S183.52,180.08,183.55,180.21Z" style="fill:#fff"></path><path d="M105.09,171.5a10,10,0,0,1-2.47.53,43.69,43.69,0,0,1-6.08.38c-2.38,0-4.53-.1-6.08-.16a13.15,13.15,0,0,1-2.51-.19,11,11,0,0,1,2.51-.18c1.56,0,3.71,0,6.07,0s4.5-.1,6-.22A15.67,15.67,0,0,1,105.09,171.5Z" style="fill:#fff"></path><path d="M131.54,124.24s-1.4,13-.68,14.28,7.7,9.24,7.7,9.24l10.51-.39,6.61-18.19-1.48-7.69s-1.45-.26-1.83,1.66l-1.2-5.5s-2.76-1.22-2.72,1.24.15,5,.15,5L147,130.7l.7-9.42-1.81-5.67s-2.29-.84-2.63,2.36a37.31,37.31,0,0,0-.12,6l-1.55,5.75.23-10.52s-.65-3.56-2.46-2.57S136,133.34,136,133.34l-1,2,.38-4.57S135.55,122,131.54,124.24Z" style="fill:#ffbf9d"></path><path d="M131.54,124.24l.19-.12a2.94,2.94,0,0,1,.66-.24,1.62,1.62,0,0,1,1.13.15,2.64,2.64,0,0,1,1,1.2,11.84,11.84,0,0,1,.9,4.25c0,.43.05.87,0,1.34s-.08.93-.11,1.41c-.08,1-.16,2-.25,3.11l-.27-.07c.31-.62.65-1.3,1-2v.06c.28-2.91.65-6.16,1.22-9.7a40.67,40.67,0,0,1,1.2-5.5,5.26,5.26,0,0,1,.63-1.4,1.28,1.28,0,0,1,1.59-.4,2.49,2.49,0,0,1,1,1.26,7.93,7.93,0,0,1,.49,1.52v0c-.07,3.33-.14,6.85-.21,10.52l-.46-.07c.48-1.8,1-3.75,1.54-5.75v.08a37.7,37.7,0,0,1,0-5,6.56,6.56,0,0,1,.53-2.59,2,2,0,0,1,1.06-1,2.21,2.21,0,0,1,1.46,0l.11,0,0,.13c.57,1.79,1.19,3.72,1.82,5.67v.1c-.22,3-.46,6.19-.7,9.42l-.51-.08c.31-1.31.65-2.72,1-4.14.21-.89.43-1.77.64-2.65v.07c0-1.21-.07-2.41-.11-3.61,0-.61-.06-1.16,0-1.82a1.65,1.65,0,0,1,.41-1,1.51,1.51,0,0,1,1-.43,2,2,0,0,1,1.75.85,2.27,2.27,0,0,1,.37.9l.18.86c.25,1.13.49,2.26.74,3.38h-.5a2.66,2.66,0,0,1,.65-1.35,1.78,1.78,0,0,1,1.47-.51l.17,0,0,.18q.75,3.93,1.48,7.69v.07l0,.06c-2.39,6.52-4.62,12.62-6.65,18.18l-.05.14h-.15l-10.5.36h-.09l-.06-.06c-2.67-3.08-5.09-5.86-7.08-8.43a4.53,4.53,0,0,1-.66-1,2.25,2.25,0,0,1-.11-.61,3.64,3.64,0,0,1,0-.57c0-.76,0-1.49,0-2.18.06-1.39.15-2.65.24-3.79.19-2.27.37-4,.51-5.22.07-.58.12-1,.16-1.36a2.32,2.32,0,0,1,.08-.46s0,.16,0,.47-.06.78-.11,1.36c-.09,1.19-.25,3-.4,5.23-.07,1.13-.15,2.4-.19,3.78,0,.69,0,1.41,0,2.15a5.09,5.09,0,0,0,0,.56,2.08,2.08,0,0,0,.1.53,4.17,4.17,0,0,0,.63,1c2,2.53,4.44,5.3,7.12,8.35l-.15-.06,10.51-.41-.2.14c2-5.57,4.23-11.68,6.59-18.21v.13c-.48-2.5-1-5.07-1.49-7.69l.21.2a1.28,1.28,0,0,0-1,.37,2.17,2.17,0,0,0-.52,1.1l-.24,1.22-.26-1.22c-.25-1.12-.49-2.25-.74-3.39l-.19-.85a1.66,1.66,0,0,0-.28-.71,1.43,1.43,0,0,0-1.29-.63.92.92,0,0,0-.89.93c0,.52,0,1.17,0,1.75,0,1.19.07,2.39.11,3.6V124l-.63,2.65c-.34,1.42-.68,2.83-1,4.14l-.51-.08c.24-3.23.48-6.42.71-9.42v.1c-.62-2-1.24-3.89-1.81-5.68l.15.16a1.54,1.54,0,0,0-1.9.77,6.35,6.35,0,0,0-.48,2.38,38.59,38.59,0,0,0,0,4.92V124c-.53,2-1.06,4-1.55,5.75l-.51,1.87.05-1.94c.08-3.67.17-7.19.25-10.52v0a6.91,6.91,0,0,0-.45-1.42,2.11,2.11,0,0,0-.84-1.06.83.83,0,0,0-.58-.06l-.29.12a.68.68,0,0,0-.2.21,5.16,5.16,0,0,0-.58,1.28,41.22,41.22,0,0,0-1.21,5.43c-.59,3.53-1,6.77-1.29,9.66v.06l-1,2-.34.66.07-.73c.1-1.09.19-2.13.27-3.1,0-.49.09-1,.13-1.42s0-.89,0-1.31a11.88,11.88,0,0,0-.82-4.2,2.55,2.55,0,0,0-.95-1.16,1.55,1.55,0,0,0-1.06-.17A4.82,4.82,0,0,0,131.54,124.24Z" style="fill:#ff9a6c"></path><path d="M151.29,133.49a25,25,0,0,1,1.3-4.71l0,.09,0-.62a28.26,28.26,0,0,1-.06-5.5,29.88,29.88,0,0,1,.58,5.47l0,.62v.1A24.54,24.54,0,0,1,151.29,133.49Z" style="fill:#ff9a6c"></path><path d="M92.31,189.63s1.22,14.58,7.19,18.31,14,6.08,20.93-11.18c3.26-8.15,19.78-51.14,19.78-51.14l-14.1-5.44L98.77,184.33Z" style="fill:#ffbf9d"></path><path d="M145.61,139.2l31,44.14h0s9.49,20.12-3.37,26.2c-10.58,5-18.48-5.65-21.71-14.92-3.3-9.49-17.31-47.18-17.31-47.18Z" style="fill:#ffbf9d"></path><path d="M124.84,115.53s-1,11.35-1,12.84,2.3,11.81,2.3,11.81l12,10.81,11.93-18.83,2.41-7.46s-1.15-.91-2.41.58l1.6-5.39s-1.83-2.41-3-.23-2.29,4.47-2.29,4.47l-4.7,5.16,5.16-7.91,1.14-5.85s-1.6-1.83-3.44.81a37.14,37.14,0,0,0-3,5.15l-4.12,4.3,5.27-9.11s1.15-3.44-.92-3.44-11,13.07-11,13.07L129,127.57l-.91-4.72S129.43,115.53,124.84,115.53Z" style="fill:#ffbf9d"></path><path d="M130.14,171.76l.12-.37.38-1,1.53-4.09c1.36-3.59,3.34-8.78,5.82-15.32v0h0c3.33-5.28,7.36-11.67,11.88-18.86l0,.05c.75-2.34,1.56-4.86,2.4-7.46l.07.26a1.26,1.26,0,0,0-1.06-.19,2.18,2.18,0,0,0-1,.73l-.73.87.32-1.09c.5-1.68,1-3.52,1.6-5.39l0,.22a2.56,2.56,0,0,0-1.54-1,.86.86,0,0,0-.74.36,3.87,3.87,0,0,0-.53.88l-2,4v0l0,0-4.69,5.16-.41-.31,5.16-7.91,0,.09c.37-1.85.76-3.84,1.15-5.85l.06.22a1.59,1.59,0,0,0-1.45-.49,2.56,2.56,0,0,0-1.39,1,34,34,0,0,0-3.15,5.36l0,0,0,0c-1.39,1.45-2.76,2.88-4.13,4.29l-1.48,1.54,1.07-1.84,5.28-9.11,0,0a4.36,4.36,0,0,0,.17-2.58.83.83,0,0,0-.87-.53,2.7,2.7,0,0,0-1,.63,31.73,31.73,0,0,0-3.61,4c-2.22,2.78-4.25,5.59-6.15,8.33l0,0,0,0-1.84,1.26-.29.19-.06-.34c-.31-1.61-.61-3.18-.91-4.72v-.08a11.31,11.31,0,0,0-.08-4.57,3.68,3.68,0,0,0-1-1.84,3.07,3.07,0,0,0-1.9-.67l.21-.18q-.36,3.9-.67,7.43c-.1,1.17-.19,2.31-.28,3.42,0,.56-.07,1.1-.11,1.64a7.32,7.32,0,0,0,.13,1.55c.7,4.11,1.49,7.65,2.1,10.57v0l0,0-4.15,6.6L121,148.53c-.25.37-.39.55-.39.55l.33-.59c.25-.4.59-1,1-1.71l4.06-6.66,0,.09c-.64-2.92-1.46-6.44-2.19-10.57a7.75,7.75,0,0,1-.15-1.62c0-.54.07-1.08.1-1.64.09-1.11.17-2.26.26-3.43l.63-7.44,0-.19h.18a3.42,3.42,0,0,1,2.17.76,4,4,0,0,1,1.16,2,11.71,11.71,0,0,1,.1,4.76v-.08c.3,1.54.61,3.1.93,4.72l-.36-.15,1.84-1.26-.06.06c1.9-2.75,3.92-5.57,6.15-8.38a33.16,33.16,0,0,1,3.67-4.06,2.78,2.78,0,0,1,1.33-.74,1.57,1.57,0,0,1,.81.18,1.34,1.34,0,0,1,.54.64,3,3,0,0,1,.15,1.51,7.14,7.14,0,0,1-.3,1.43v0l-5.27,9.11-.41-.31,4.13-4.3-.05.08a34.32,34.32,0,0,1,3.21-5.47,3.06,3.06,0,0,1,1.69-1.22,2.09,2.09,0,0,1,1.95.66l.09.09,0,.13c-.39,2-.78,4-1.15,5.85v0l0,0-5.16,7.91-.4-.31,4.7-5.16,0,.06,2-4a4.76,4.76,0,0,1,.6-1,1.39,1.39,0,0,1,1.14-.52,3,3,0,0,1,1.9,1.23l.07.09,0,.13c-.55,1.87-1.1,3.71-1.61,5.38l-.4-.21a2.63,2.63,0,0,1,1.26-.88,1.77,1.77,0,0,1,1.47.27l.13.1-.05.16c-.85,2.59-1.67,5.11-2.42,7.44v0l0,0-12,18.81,0,0c-2.54,6.51-4.57,11.69-6,15.26l-1.61,4.06c-.18.44-.32.79-.43,1A1.68,1.68,0,0,1,130.14,171.76Z" style="fill:#ff9a6c"></path><path d="M150.22,124.78a17.42,17.42,0,0,1-.92,3.83v0l0,0-.58.71a22.84,22.84,0,0,1-3.31,3.54,22.67,22.67,0,0,1,2.91-3.88l.59-.69-.05.08A17.21,17.21,0,0,1,150.22,124.78Z" style="fill:#ff9a6c"></path></g><g id="freepik--Picture--inject-39"><rect x="263.56" y="27.24" width="133.39" height="172.28" style="fill:#455a64"></rect><path d="M397,27.24a2.35,2.35,0,0,1-.37.47L395.44,29l-4.51,4.93-.05.06h-.08c-11.6.12-34.39.2-60.54.2s-48.95-.08-60.55-.2h-.08l-.05-.06L265.07,29l-1.14-1.29a2.35,2.35,0,0,1-.37-.47,2.27,2.27,0,0,1,.44.4l1.21,1.22,4.64,4.82-.14-.06c11.6-.12,34.38-.2,60.55-.2s48.94.08,60.54.2l-.14.06,4.64-4.82,1.21-1.22A2.7,2.7,0,0,1,397,27.24Z" style="fill:#263238"></path><path d="M263.56,199.52a2.53,2.53,0,0,1,.37-.46l1.14-1.29,4.51-4.94.05-.06h.08c11.6-.12,34.39-.2,60.54-.2s48.95.08,60.55.2h.08l.05.06,4.51,4.94,1.14,1.29a2.53,2.53,0,0,1,.37.46,2.87,2.87,0,0,1-.44-.39l-1.21-1.23-4.64-4.81.14,0c-11.6.12-34.38.2-60.55.2s-48.94-.08-60.54-.2l.14,0c-2,2.06-3.53,3.67-4.64,4.81L264,199.13A2.39,2.39,0,0,1,263.56,199.52Z" style="fill:#263238"></path><rect x="269.71" y="33.81" width="121.08" height="159.15" style="fill:#fff"></rect><path d="M288.66,146.41c3.6-3.43,8.92-4.4,13.89-4.27s9.9,1.17,14.87,1.11c8-.1,15.88-3,23.72-1.68,2.51.43,5.05,1.3,7.53.77,2.18-.46,4-2,6.14-2.59,5.52-1.64,11.74,2.68,17,.42V175.7H288.66Z" style="fill:#FF725E"></path><path d="M290.34,147.84c-.22,0-.39-21-.39-47s.17-47,.39-47,.38,21,.38,47S290.55,147.84,290.34,147.84Z" style="fill:#263238"></path><path d="M294.12,147.84c-.21,0-.38-21-.38-47s.17-47,.38-47,.39,21,.39,47S294.34,147.84,294.12,147.84Z" style="fill:#263238"></path><path d="M297.91,147.84c-.21,0-.39-21-.39-47s.18-47,.39-47,.39,21,.39,47S298.12,147.84,297.91,147.84Z" style="fill:#263238"></path><path d="M301.7,147.84c-.22,0-.39-21-.39-47s.17-47,.39-47,.38,21,.38,47S301.91,147.84,301.7,147.84Z" style="fill:#263238"></path><path d="M305.49,147.84c-.22,0-.39-21-.39-47s.17-47,.39-47,.38,21,.38,47S305.7,147.84,305.49,147.84Z" style="fill:#263238"></path><path d="M309.27,147.84c-.21,0-.38-21-.38-47s.17-47,.38-47,.39,21,.39,47S309.49,147.84,309.27,147.84Z" style="fill:#263238"></path><path d="M313.06,147.84c-.21,0-.39-21-.39-47s.18-47,.39-47,.39,21,.39,47S313.27,147.84,313.06,147.84Z" style="fill:#263238"></path><path d="M316.85,147.84c-.21,0-.39-21-.39-47s.18-47,.39-47,.38,21,.38,47S317.06,147.84,316.85,147.84Z" style="fill:#263238"></path><path d="M320.64,147.84c-.22,0-.39-21-.39-47s.17-47,.39-47,.38,21,.38,47S320.85,147.84,320.64,147.84Z" style="fill:#263238"></path><path d="M324.42,147.84c-.21,0-.38-21-.38-47s.17-47,.38-47,.39,21,.39,47S324.64,147.84,324.42,147.84Z" style="fill:#263238"></path><path d="M328.21,147.84c-.21,0-.39-21-.39-47s.18-47,.39-47,.39,21,.39,47S328.42,147.84,328.21,147.84Z" style="fill:#263238"></path><path d="M332,147.84c-.21,0-.39-21-.39-47s.18-47,.39-47,.39,21,.39,47S332.21,147.84,332,147.84Z" style="fill:#263238"></path><path d="M335.79,147.84c-.22,0-.39-21-.39-47s.17-47,.39-47,.38,21,.38,47S336,147.84,335.79,147.84Z" style="fill:#263238"></path><path d="M339.57,147.84c-.21,0-.38-21-.38-47s.17-47,.38-47,.39,21,.39,47S339.79,147.84,339.57,147.84Z" style="fill:#263238"></path><path d="M343.36,147.84c-.21,0-.39-21-.39-47s.18-47,.39-47,.39,21,.39,47S343.57,147.84,343.36,147.84Z" style="fill:#263238"></path><path d="M347.15,147.84c-.21,0-.39-21-.39-47s.18-47,.39-47,.39,21,.39,47S347.36,147.84,347.15,147.84Z" style="fill:#263238"></path><path d="M350.94,147.84c-.22,0-.39-21-.39-47s.17-47,.39-47,.38,21,.38,47S351.15,147.84,350.94,147.84Z" style="fill:#263238"></path><path d="M354.72,147.84c-.21,0-.38-21-.38-47s.17-47,.38-47,.39,21,.39,47S354.94,147.84,354.72,147.84Z" style="fill:#263238"></path><path d="M358.51,147.84c-.21,0-.38-21-.38-47s.17-47,.38-47,.39,21,.39,47S358.72,147.84,358.51,147.84Z" style="fill:#263238"></path><path d="M362.3,147.84c-.21,0-.39-21-.39-47s.18-47,.39-47,.39,21,.39,47S362.51,147.84,362.3,147.84Z" style="fill:#263238"></path><path d="M366.09,147.84c-.22,0-.39-21-.39-47s.17-47,.39-47,.38,21,.38,47S366.3,147.84,366.09,147.84Z" style="fill:#263238"></path><path d="M369.87,147.84c-.21,0-.38-21-.38-47s.17-47,.38-47,.39,21,.39,47S370.09,147.84,369.87,147.84Z" style="fill:#263238"></path></g><g id="freepik--speech-bubble--inject-39"><polygon points="214.08 71.02 202.7 59.23 199.87 77.87 184.62 77.36 194.16 89.89 184.56 102.49 200.46 99.35 202.76 115.35 215.62 105.61 231.82 114.1 228.28 97.72 246.67 94.83 232.36 86.39 240.7 72 226.41 77.59 224.67 59.85 214.08 71.02" style="fill:#fff"></polygon><path d="M214.08,71l.7-.76c.47-.51,1.14-1.24,2-2.19l7.77-8.29.18-.19,0,.26c.48,4.82,1.09,10.81,1.79,17.74l-.23-.14,14.28-5.62.53-.21-.29.49-8.32,14.4-.07-.3,14.31,8.42.57.34-.66.1L228.32,98l.2-.3c1.13,5.22,2.33,10.74,3.55,16.38l.12.53-.48-.25L217.66,107l-2.16-1.13.27,0-12.86,9.73-.34.26-.06-.42q-1.17-8.19-2.29-16l.29.21-15.9,3.12-.62.12.38-.5c3.34-4.36,6.55-8.57,9.62-12.59V90l-9.53-12.54-.26-.34h.43l15.25.55-.18.15c1.13-7.34,2.1-13.58,2.88-18.64l0-.24.17.17,8.38,8.79,2.17,2.29c.49.51.74.79.74.79s-.25-.23-.74-.73l-2.19-2.22-8.54-8.75.21-.06c-.76,5.06-1.69,11.31-2.78,18.65l0,.15h-.16l-15.25-.48.17-.33,9.56,12.52.1.14-.1.13-9.59,12.61-.23-.38,15.89-3.14.26,0,0,.26q1.13,7.8,2.3,16l-.4-.16,12.85-9.74.13-.1.14.07,2.17,1.14,14,7.35-.36.28L228,97.78l-.05-.26.26,0,18.39-2.89-.08.44-14.3-8.45-.19-.12.11-.18c3-5.1,5.78-9.93,8.36-14.38l.24.29-14.3,5.56-.21.08,0-.22c-.66-6.93-1.23-12.93-1.69-17.74l.21.07-7.93,8.25-2.05,2.12C214.32,70.79,214.08,71,214.08,71Z" style="fill:#263238"></path><path d="M190.61,115.35a3.4,3.4,0,1,1-3.4-3.4A3.4,3.4,0,0,1,190.61,115.35Z" style="fill:#fff"></path><path d="M190.61,115.35c-.05,0-.05-.3-.21-.81a3.46,3.46,0,0,0-1.24-1.75,3.25,3.25,0,0,0-3-.41,3.17,3.17,0,0,0,0,5.94,3.25,3.25,0,0,0,3-.41,3.46,3.46,0,0,0,1.24-1.75c.16-.51.16-.81.21-.81a1.65,1.65,0,0,1,0,.85,3.42,3.42,0,0,1-1.22,2,3.57,3.57,0,0,1-3.41.56,3.61,3.61,0,0,1,0-6.82,3.57,3.57,0,0,1,3.41.56,3.42,3.42,0,0,1,1.22,2A1.65,1.65,0,0,1,190.61,115.35Z" style="fill:#263238"></path><path d="M215.76,78.33l-.68,10.87a1.77,1.77,0,0,1-1.66,1.65h0a1.77,1.77,0,0,1-1.86-1.57l-1.2-10.92a1.38,1.38,0,0,1,1.39-1.54l2.65,0A1.38,1.38,0,0,1,215.76,78.33Z" style="fill:#263238"></path><path d="M210.54,97a2.65,2.65,0,1,0,1.68-3.35A2.64,2.64,0,0,0,210.54,97Z" style="fill:#263238"></path></g></svg>